<svg width="444" height="502" viewBox="0 0 444 502" fill="none" xmlns="http://www.w3.org/2000/svg">
<rect width="444" height="502" rx="222" fill="#191919"/>
<path d="M232.786 261.057L244.178 260.5L232.786 259.943C230.33 259.823 228.005 258.739 226.266 256.904C224.528 255.069 223.501 252.615 223.387 250.023L222.86 238L222.332 250.023C222.218 252.615 221.191 255.069 219.453 256.904C217.714 258.739 215.389 259.823 212.933 259.943L201.541 260.5L212.933 261.057C215.389 261.177 217.714 262.261 219.453 264.096C221.191 265.931 222.218 268.385 222.332 270.977L222.86 283L223.387 270.977C223.501 268.385 224.528 265.931 226.266 264.096C228.005 262.261 230.33 261.177 232.786 261.057Z" fill="white"/>
<path d="M234.84 260.498H409" stroke="white"/>
<path d="M35 260.498H209.16" stroke="white"/>
</svg>
