<svg width="444" height="502" viewBox="0 0 444 502" fill="none" xmlns="http://www.w3.org/2000/svg">
<rect width="444" height="502" rx="10" fill="white"/>
<path d="M383.532 218.686C399.364 137.802 337.909 86.7047 246.837 104.557C156.11 122.402 72.2026 202.433 58.9054 283.317C45.2565 364.194 105.252 415.291 193.477 397.446C282.034 379.594 367.381 299.562 383.532 218.686ZM208.478 289.014C210.175 272.528 197.849 262.148 179.533 264.6L112.401 273.601L181.163 255.469C199.948 250.526 217.126 234.255 221.566 217.222L237.642 154.724L231.717 215.206C230.06 231.692 242.419 242.078 260.793 239.627L328.264 230.619L259.065 248.757C240.241 253.7 223.031 269.965 218.565 287.004L202.117 349.502L208.478 289.014Z" fill="url(#paint0_linear_1430_33304)"/>
<defs>
<linearGradient id="paint0_linear_1430_33304" x1="221" y1="-86" x2="182.068" y2="384.506" gradientUnits="userSpaceOnUse">
<stop stop-color="#FF8551"/>
<stop offset="1" stop-color="#FF8551" stop-opacity="0"/>
</linearGradient>
</defs>
</svg>
