<svg width="444" height="502" viewBox="0 0 444 502" fill="none" xmlns="http://www.w3.org/2000/svg">
<rect width="444" height="502" rx="10" fill="white"/>
<path d="M0 145L444 145" stroke="#191919" stroke-width="2"/>
<path d="M0 101L444 101" stroke="#191919" stroke-width="2"/>
<path d="M417.816 52.2132L444 51L417.816 49.7868C412.171 49.5256 406.827 47.1657 402.83 43.1696C398.834 39.1734 396.474 33.8291 396.213 28.1837L395 2L393.787 28.1837C393.526 33.8291 391.166 39.1734 387.17 43.1696C383.173 47.1657 377.829 49.5256 372.184 49.7868L346 51L372.184 52.2132C377.829 52.4744 383.173 54.8343 387.17 58.8304C391.166 62.8266 393.526 68.1709 393.787 73.8163L395 100L396.213 73.8163C396.474 68.1709 398.834 62.8266 402.83 58.8304C406.827 54.8343 412.171 52.4744 417.816 52.2132Z" fill="#191919"/>
<path d="M345 100.5V0" stroke="#191919" stroke-width="2"/>
</svg>
