<svg width="751" height="211" viewBox="0 0 751 211" fill="none" xmlns="http://www.w3.org/2000/svg">
<path d="M73.5 79.6875H50.9375V68.5625H68.8125V63.0625H60.75V46.1875H69V40.5625H26.125V46.1875H34.25V63.0625H26.3125V68.5625H44.0625V79.6875H21.875V85.5H73.5V79.6875ZM41.1875 63.0625V46.1875H53.875V63.0625H41.1875ZM121.485 41.0625H81.985V46.6875H114.548V47.4375C114.548 54.7812 114.548 62.9688 112.36 74.0625L119.423 74.6875C121.485 62.7812 121.485 55 121.485 47.4375V41.0625ZM76.5475 84.3125H128.048V78.625H76.5475V84.3125ZM148.095 39.0625C139.22 39.0625 132.72 44.6562 132.783 52.6875C132.72 59.6562 137.626 64.7812 144.72 66.0312V74.5312C139.658 74.6562 134.783 74.6875 130.533 74.6875L131.533 80.375C141.22 80.5 154.126 80.4375 165.97 78.3125L165.47 73.125C161.064 73.7188 156.376 74.0625 151.658 74.3125V65.9688C158.533 64.6875 163.408 59.5938 163.47 52.6875C163.408 44.6562 156.783 39.0625 148.095 39.0625ZM139.533 52.6875C139.501 47.9375 143.158 45 148.095 44.9375C152.939 45 156.564 47.9375 156.595 52.6875C156.564 57.4062 152.939 60.4375 148.095 60.375C143.158 60.4375 139.501 57.4062 139.533 52.6875ZM168.72 92.0625H175.658V64H183.845V58.125H175.658V35.5625H168.72V92.0625Z" fill="white"/>
<rect x="223" y="20" width="250" height="87" fill="#00C4B4"/>
<path d="M366.687 22.9738C366.95 22.7481 367.137 22.4478 367.223 22.1132C367.309 21.7786 367.29 21.4257 367.169 21.102C367.048 20.7783 366.831 20.4991 366.546 20.3021C366.261 20.1051 365.923 19.9997 365.576 20L266.648 20C255.072 20 243.97 24.583 235.784 32.7409C227.599 40.8987 223 51.9631 223 63.5C223 75.0369 227.599 86.1013 235.784 94.2591C243.97 102.417 255.072 107 266.648 107L366.291 107C366.581 106.995 366.864 106.903 367.102 106.736C367.339 106.568 367.52 106.333 367.621 106.061C367.723 105.79 367.739 105.494 367.669 105.212C367.598 104.931 367.444 104.677 367.227 104.485L361.973 99.9135C361.538 99.5334 361.19 99.0651 360.951 98.54C360.712 98.0149 360.589 97.4449 360.589 96.8684C360.589 96.2919 360.712 95.722 360.951 95.1969C361.19 94.6718 361.538 94.2035 361.973 93.8234L367.751 88.7933C368.186 88.4132 368.534 87.9449 368.773 87.4198C369.012 86.8947 369.135 86.3248 369.135 85.7483C369.135 85.1717 369.012 84.6018 368.773 84.0767C368.534 83.5515 368.186 83.0834 367.751 82.7033L361.973 77.6731C361.538 77.2931 361.19 76.8248 360.951 76.2997C360.712 75.7745 360.589 75.2046 360.589 74.628C360.589 74.0515 360.712 73.4817 360.951 72.9565C361.19 72.4314 361.538 71.9631 361.973 71.5831L367.751 66.5371C368.185 66.1585 368.534 65.6916 368.772 65.1677C369.011 64.6439 369.135 64.0753 369.135 63.5C369.135 62.9247 369.011 62.3561 368.772 61.8323C368.534 61.3084 368.185 60.8415 367.751 60.4629L361.973 55.4169C361.538 55.0369 361.19 54.5686 360.951 54.0435C360.712 53.5183 360.589 52.9485 360.589 52.372C360.589 51.7954 360.712 51.2255 360.951 50.7003C361.19 50.1752 361.538 49.7069 361.973 49.3269L367.751 44.2967C368.186 43.9166 368.534 43.4485 368.773 42.9233C369.012 42.3982 369.135 41.8283 369.135 41.2517C369.135 40.6752 369.012 40.1053 368.773 39.5802C368.534 39.0551 368.186 38.5868 367.751 38.2067L361.973 33.1766C361.538 32.7965 361.19 32.3282 360.951 31.8031C360.712 31.278 360.589 30.7081 360.589 30.1316C360.589 29.5551 360.712 28.9851 360.951 28.46C361.19 27.9349 361.538 27.4666 361.973 27.0865L366.687 22.9738Z" fill="white"/>
<path fill-rule="evenodd" clip-rule="evenodd" d="M273.443 62.4793C273.443 54.3914 269.115 47.5565 263.989 47.5565C263.045 47.5565 262.129 47.7882 261.262 48.2167C265.376 49.6517 268.455 55.494 268.455 62.483C268.455 69.467 265.38 75.3059 261.271 76.7462C262.135 77.1719 263.048 77.4019 263.989 77.4019C269.115 77.4019 273.443 70.5671 273.443 62.4793ZM250 62.4793C250 51.7258 256.265 43 263.989 43C271.712 43 278 51.7258 278 62.4793C278 73.2327 271.712 81.9585 263.989 81.9585C256.265 81.9585 250 73.2327 250 62.4793Z" fill="black"/>
<path fill-rule="evenodd" clip-rule="evenodd" d="M306.443 62.4793C306.443 54.3914 302.115 47.5565 296.989 47.5565C296.045 47.5565 295.129 47.7882 294.262 48.2167C298.376 49.6517 301.455 55.494 301.455 62.483C301.455 69.467 298.38 75.3059 294.271 76.7462C295.135 77.1719 296.048 77.4019 296.989 77.4019C302.115 77.4019 306.443 70.5671 306.443 62.4793ZM283 62.4793C283 51.7258 289.265 43 296.989 43C304.712 43 311 51.7258 311 62.4793C311 73.2327 304.712 81.9585 296.989 81.9585C289.265 81.9585 283 73.2327 283 62.4793Z" fill="black"/>
<path d="M418.001 86.7116L436.871 67.5852H391V58.4188H436.871L418.001 39.3162L424.287 33.0039L453.848 63.002L424.287 93.0002L418.001 86.7116Z" fill="white"/>
<path d="M557.438 35.5625H550.5V69.625H557.438V55.6875H565.312V49.875H557.438V35.5625ZM512.938 46.5625H546.438V41H533.188V35.1875H526.25V41H512.938V46.5625ZM515.812 58.75C515.812 64.8438 521.438 68.875 529.688 68.875C537.844 68.875 543.469 64.8438 543.5 58.75C543.469 52.7188 537.875 48.625 529.688 48.625C521.438 48.625 515.812 52.7188 515.812 58.75ZM520.938 91.375H557.438V72.3125H520.938V91.375ZM522.562 58.75C522.531 55.6875 525.406 53.875 529.688 53.875C533.969 53.875 536.875 55.6875 536.875 58.75C536.875 61.9062 533.969 63.6875 529.688 63.6875C525.406 63.6875 522.531 61.9062 522.562 58.75ZM527.812 85.75V77.8125H550.562V85.75H527.812ZM581.485 42.1875H568.61V47.8125H575.454C575.048 58.5938 573.204 67.7812 566.985 76.5625L572.423 79.5C579.954 68.375 581.423 55.5312 581.485 42.1875ZM579.735 79.625L585.048 82.625C589.204 76.4688 591.485 69.6562 592.704 62.6875H599.173V89.375H605.735V36.9375H599.173V57.0625H593.454C593.985 52.0625 594.079 47.0312 594.11 42.1875H583.173V47.8125H588.11C587.86 59 586.516 69.9062 579.735 79.625ZM609.985 92.0625H616.673V35.5625H609.985V92.0625ZM666.47 35.5625H659.595V92.125H666.47V63.0625H675.158V57.25H666.47V35.5625ZM624.47 46.125H643.533V56.25H624.595V78.8125H629.22C639.501 78.8125 647.189 78.4375 655.908 76.875L655.283 71.25C647.408 72.625 640.439 73 631.47 73.0625V61.8125H650.47V40.5H624.47V46.125ZM705.893 40.3125H679.33V67.375H705.893V62.5H717.268V76.75H724.205V35.625H717.268V44.8125H705.893V40.3125ZM686.268 61.9375V45.8125H699.018V61.9375H686.268ZM686.955 90.9375H725.455V85.3125H694.018V72.9375H686.955V90.9375ZM705.893 56.9375V50.5H717.268V56.9375H705.893Z" fill="white"/>
<rect width="326" height="84" transform="translate(20 107)" fill="black"/>
<path d="M80.375 121.062H73.6875V142.938H67.625V122.562H61.125V174.938H67.625V148.562H73.6875V177.562H80.375V121.062ZM31.4375 160.938L35.4375 165.75C51.5 156.594 56.3125 143.469 56.3125 128.188H34.0625V133.75H49.5625C48.5625 145.062 43.4688 154 31.4375 160.938ZM95.36 123.562H88.485V148.188H115.423V123.562H108.548V130.75H95.36V123.562ZM94.1725 157.688H124.173V162H94.235V177.062H132.86V171.562H101.11V167.062H131.11V152.25H94.1725V157.688ZM95.36 142.688V136H108.548V142.688H95.36ZM124.173 150H131.11V138.125H138.985V132.5H131.11V121.062H124.173V150ZM161.47 137.125V132.375H173.283V126.625H142.22V132.375H154.533V137.125C154.501 146.531 149.033 157.094 140.033 161.375L144.095 166.812C150.595 163.688 155.533 157.062 158.095 149.312C160.626 156.375 165.345 162.438 171.72 165.438L175.595 159.938C166.689 155.781 161.439 145.844 161.47 137.125ZM178.533 177.562H185.47V148.875H194.158V143.062H185.47V121.062H178.533V177.562ZM244.378 127H232.69V121.188H225.753V127H214.065V132.438H225.69C225.596 137.625 221.096 142.375 212.628 144.062L215.565 149.438C222.19 148.031 226.878 144.688 229.346 140.25C231.846 144.312 236.409 147.344 242.878 148.688L245.628 143.312C237.284 141.688 232.815 137.344 232.69 132.438H244.378V127ZM210.503 152.375L211.378 158.125C215.69 158.125 220.596 158.094 225.753 157.906V175.812H232.753V157.531C237.69 157.188 242.753 156.656 247.628 155.812L247.128 150.812C235.065 152.312 221.034 152.406 210.503 152.375ZM250.815 177.5H257.69V121.125H250.815V177.5ZM280.8 123.562C272.144 123.531 265.863 129.094 265.863 136.812C265.863 144.625 272.144 150.188 280.8 150.188C288.175 150.188 293.988 145.906 295.331 139.562H305.488V151.375H312.425V121.062H305.488V133.938H295.269C293.863 127.75 288.113 123.531 280.8 123.562ZM272.488 136.812C272.488 132.281 275.925 129.344 280.8 129.375C285.55 129.344 288.956 132.281 288.988 136.812C288.956 141.344 285.55 144.344 280.8 144.312C275.925 144.344 272.488 141.344 272.488 136.812ZM275.175 176.875H312.425V154H305.488V160H282.05V154H275.175V176.875ZM282.05 171.25V165.375H305.488V171.25H282.05ZM330.785 167.562H322.848L319.598 185.062H325.535L330.785 167.562Z" fill="#03DAC5"/>
<path d="M406.312 121.062H399.375V138.938H383.188V144.562H399.375V177.625H406.312V121.062ZM361.875 164.25H366.5C375.156 164.219 383.594 163.75 392.688 161.875L391.875 156.188C383.938 157.75 376.406 158.312 368.812 158.406V127.25H361.875V164.25ZM459.423 146.75H426.735V130.812H458.985V125.25H419.798V152.25H435.798V165.188H413.548V170.875H465.173V165.188H442.673V152.25H459.423V146.75ZM527.33 120.938H520.393V151.75H527.33V139.312H535.268V133.688H527.33V120.938ZM482.83 130.938H516.33V125.625H503.08V120.625H496.143V125.625H482.83V130.938ZM485.705 141.938C485.705 147.719 491.236 151.188 499.58 151.188C507.955 151.188 513.361 147.719 513.393 141.938C513.361 136.312 507.955 132.719 499.58 132.688C491.236 132.719 485.705 136.312 485.705 141.938ZM490.393 159.312H520.393V163.062H490.455V177.062H529.08V171.875H497.33V167.875H527.33V154.25H490.393V159.312ZM492.455 141.938C492.424 139.25 495.205 137.656 499.58 137.688C503.955 137.656 506.768 139.25 506.768 141.938C506.768 144.719 503.955 146.156 499.58 146.188C495.205 146.156 492.424 144.719 492.455 141.938ZM581.425 125.75V122.875H574.113V125.75C574.113 132.906 566.175 140.062 554.238 141.625L556.988 147.25C566.488 145.812 574.081 141.094 577.769 134.719C581.456 141.094 589.081 145.812 598.675 147.25L601.425 141.625C589.363 140.062 581.394 132.844 581.425 125.75ZM551.988 157.875H574.175V177.562H581.05V157.875H603.488V152.125H551.988V157.875ZM641.27 157.812V155.5H634.52V157.812C634.489 163.312 630.957 169.062 623.645 171.625L627.082 176.688C632.301 174.812 635.895 171.281 637.926 166.938C639.707 171.406 643.082 175.219 648.457 177.188C653.582 175.125 656.895 171.188 658.739 166.719C660.707 171.25 664.332 174.844 669.832 176.688L673.207 171.625C665.801 169.281 662.301 163.719 662.332 157.812V155.5H655.52V157.812C655.489 162.094 653.207 167.219 648.27 170.562C643.426 167.438 641.27 162.531 641.27 157.812ZM622.207 137.562C622.207 145.406 628.707 150.969 637.457 150.938C646.176 150.969 652.676 145.406 652.645 137.562C652.676 129.625 646.176 124.125 637.457 124.125C628.707 124.125 622.207 129.625 622.207 137.562ZM629.02 137.562C628.989 132.938 632.52 129.969 637.457 130C642.301 129.969 645.832 132.938 645.832 137.562C645.832 142.188 642.301 145.156 637.457 145.188C632.52 145.156 628.989 142.188 629.02 137.562ZM661.27 153.125H668.27V121.125H661.27V153.125ZM691.318 125.188C682.818 125.188 676.786 132.938 676.818 145.125C676.786 157.406 682.818 165.125 691.318 165.125C699.161 165.125 704.911 158.406 705.661 147.5H716.38V177.625H723.255V121.062H716.38V141.875H705.599C704.599 131.562 698.943 125.188 691.318 125.188ZM683.505 145.125C683.474 136.5 686.661 131.438 691.318 131.438C696.005 131.438 699.161 136.5 699.193 145.125C699.161 153.812 696.005 158.844 691.318 158.875C686.661 158.844 683.474 153.812 683.505 145.125Z" fill="white"/>
</svg>
