<svg width="26" height="26" viewBox="0 0 26 26" fill="none" xmlns="http://www.w3.org/2000/svg">
<path d="M9.75 22.75H16.25" stroke="#9C9EAE" stroke-width="2" stroke-linecap="round" stroke-linejoin="round"/>
<path d="M5.70858 10.5624C5.70723 9.59882 5.89662 8.64447 6.26583 7.75439C6.63504 6.86431 7.17677 6.05611 7.85979 5.37637C8.5428 4.69663 9.3536 4.1588 10.2455 3.79387C11.1373 3.42895 12.0926 3.24416 13.0562 3.25014C17.077 3.28003 20.2931 6.62215 20.2931 10.6542V11.3749C20.2931 15.0125 21.0542 17.1233 21.7245 18.2769C21.7967 18.4002 21.8351 18.5403 21.8359 18.6832C21.8366 18.8261 21.7997 18.9666 21.7288 19.0906C21.6579 19.2147 21.5556 19.3178 21.4321 19.3897C21.3086 19.4615 21.1684 19.4996 21.0255 19.4999H4.97536C4.83248 19.4996 4.69222 19.4615 4.56874 19.3896C4.44526 19.3178 4.34292 19.2146 4.27204 19.0905C4.20117 18.9665 4.16426 18.8259 4.16505 18.683C4.16584 18.5402 4.2043 18.4 4.27654 18.2768C4.94718 17.1231 5.70857 15.0123 5.70857 11.3749L5.70858 10.5624Z" fill="#9C9EAE" stroke="#9C9EAE" stroke-width="2" stroke-linecap="round" stroke-linejoin="round"/>
</svg>
