<svg width="710" height="174" viewBox="0 0 710 174" fill="none" xmlns="http://www.w3.org/2000/svg">
<rect y="87" width="327" height="87" fill="black"/>
<path d="M63.5 51.1875H40.9375V40.0625H58.8125V34.5625H50.75V17.6875H59V12.0625H16.125V17.6875H24.25V34.5625H16.3125V40.0625H34.0625V51.1875H11.875V57H63.5V51.1875ZM31.1875 34.5625V17.6875H43.875V34.5625H31.1875ZM111.485 12.5625H71.985V18.1875H104.548V18.9375C104.548 26.2812 104.548 34.4688 102.36 45.5625L109.423 46.1875C111.485 34.2812 111.485 26.5 111.485 18.9375V12.5625ZM66.5475 55.8125H118.048V50.125H66.5475V55.8125ZM138.095 10.5625C129.22 10.5625 122.72 16.1562 122.783 24.1875C122.72 31.1562 127.626 36.2812 134.72 37.5312V46.0312C129.658 46.1562 124.783 46.1875 120.533 46.1875L121.533 51.875C131.22 52 144.126 51.9375 155.97 49.8125L155.47 44.625C151.064 45.2188 146.376 45.5625 141.658 45.8125V37.4688C148.533 36.1875 153.408 31.0938 153.47 24.1875C153.408 16.1562 146.783 10.5625 138.095 10.5625ZM129.533 24.1875C129.501 19.4375 133.158 16.5 138.095 16.4375C142.939 16.5 146.564 19.4375 146.595 24.1875C146.564 28.9062 142.939 31.9375 138.095 31.875C133.158 31.9375 129.501 28.9062 129.533 24.1875ZM158.72 63.5625H165.658V35.5H173.845V29.625H165.658V7.0625H158.72V63.5625Z" fill="white"/>
<path d="M530.438 7.0625H523.5V41.125H530.438V27.1875H538.312V21.375H530.438V7.0625ZM485.938 18.0625H519.438V12.5H506.188V6.6875H499.25V12.5H485.938V18.0625ZM488.812 30.25C488.812 36.3438 494.438 40.375 502.688 40.375C510.844 40.375 516.469 36.3438 516.5 30.25C516.469 24.2188 510.875 20.125 502.688 20.125C494.438 20.125 488.812 24.2188 488.812 30.25ZM493.938 62.875H530.438V43.8125H493.938V62.875ZM495.562 30.25C495.531 27.1875 498.406 25.375 502.688 25.375C506.969 25.375 509.875 27.1875 509.875 30.25C509.875 33.4062 506.969 35.1875 502.688 35.1875C498.406 35.1875 495.531 33.4062 495.562 30.25ZM500.812 57.25V49.3125H523.562V57.25H500.812ZM554.485 13.6875H541.61V19.3125H548.454C548.048 30.0938 546.204 39.2812 539.985 48.0625L545.423 51C552.954 39.875 554.423 27.0312 554.485 13.6875ZM552.735 51.125L558.048 54.125C562.204 47.9688 564.485 41.1562 565.704 34.1875H572.173V60.875H578.735V8.4375H572.173V28.5625H566.454C566.985 23.5625 567.079 18.5312 567.11 13.6875H556.173V19.3125H561.11C560.86 30.5 559.516 41.4062 552.735 51.125ZM582.985 63.5625H589.673V7.0625H582.985V63.5625ZM639.47 7.0625H632.595V63.625H639.47V34.5625H648.158V28.75H639.47V7.0625ZM597.47 17.625H616.533V27.75H597.595V50.3125H602.22C612.501 50.3125 620.189 49.9375 628.908 48.375L628.283 42.75C620.408 44.125 613.439 44.5 604.47 44.5625V33.3125H623.47V12H597.47V17.625ZM678.893 11.8125H652.33V38.875H678.893V34H690.268V48.25H697.205V7.125H690.268V16.3125H678.893V11.8125ZM659.268 33.4375V17.3125H672.018V33.4375H659.268ZM659.955 62.4375H698.455V56.8125H667.018V44.4375H659.955V62.4375ZM678.893 28.4375V22H690.268V28.4375H678.893Z" fill="white"/>
<path d="M60.375 101.062H53.6875V122.938H47.625V102.562H41.125V154.938H47.625V128.562H53.6875V157.562H60.375V101.062ZM11.4375 140.938L15.4375 145.75C31.5 136.594 36.3125 123.469 36.3125 108.188H14.0625V113.75H29.5625C28.5625 125.062 23.4688 134 11.4375 140.938ZM75.36 103.562H68.485V128.188H95.4225V103.562H88.5475V110.75H75.36V103.562ZM74.1725 137.688H104.173V142H74.235V157.062H112.86V151.562H81.11V147.062H111.11V132.25H74.1725V137.688ZM75.36 122.688V116H88.5475V122.688H75.36ZM104.173 130H111.11V118.125H118.985V112.5H111.11V101.062H104.173V130ZM141.47 117.125V112.375H153.283V106.625H122.22V112.375H134.533V117.125C134.501 126.531 129.033 137.094 120.033 141.375L124.095 146.812C130.595 143.688 135.533 137.062 138.095 129.312C140.626 136.375 145.345 142.438 151.72 145.438L155.595 139.938C146.689 135.781 141.439 125.844 141.47 117.125ZM158.533 157.562H165.47V128.875H174.158V123.062H165.47V101.062H158.533V157.562ZM224.378 107H212.69V101.188H205.753V107H194.065V112.438H205.69C205.596 117.625 201.096 122.375 192.628 124.062L195.565 129.438C202.19 128.031 206.878 124.688 209.346 120.25C211.846 124.312 216.409 127.344 222.878 128.688L225.628 123.312C217.284 121.688 212.815 117.344 212.69 112.438H224.378V107ZM190.503 132.375L191.378 138.125C195.69 138.125 200.596 138.094 205.753 137.906V155.812H212.753V137.531C217.69 137.188 222.753 136.656 227.628 135.812L227.128 130.812C215.065 132.312 201.034 132.406 190.503 132.375ZM230.815 157.5H237.69V101.125H230.815V157.5ZM260.8 103.562C252.144 103.531 245.863 109.094 245.863 116.812C245.863 124.625 252.144 130.188 260.8 130.188C268.175 130.188 273.988 125.906 275.331 119.562H285.488V131.375H292.425V101.062H285.488V113.938H275.269C273.863 107.75 268.113 103.531 260.8 103.562ZM252.488 116.812C252.488 112.281 255.925 109.344 260.8 109.375C265.55 109.344 268.956 112.281 268.988 116.812C268.956 121.344 265.55 124.344 260.8 124.312C255.925 124.344 252.488 121.344 252.488 116.812ZM255.175 156.875H292.425V134H285.488V140H262.05V134H255.175V156.875ZM262.05 151.25V145.375H285.488V151.25H262.05ZM310.785 147.562H302.848L299.598 165.062H305.535L310.785 147.562Z" fill="#03DAC5"/>
<path d="M386.312 101.062H379.375V118.938H363.188V124.562H379.375V157.625H386.312V101.062ZM341.875 144.25H346.5C355.156 144.219 363.594 143.75 372.688 141.875L371.875 136.188C363.938 137.75 356.406 138.312 348.812 138.406V107.25H341.875V144.25ZM439.423 126.75H406.735V110.812H438.985V105.25H399.798V132.25H415.798V145.188H393.548V150.875H445.173V145.188H422.673V132.25H439.423V126.75ZM507.33 100.938H500.393V131.75H507.33V119.312H515.268V113.688H507.33V100.938ZM462.83 110.938H496.33V105.625H483.08V100.625H476.143V105.625H462.83V110.938ZM465.705 121.938C465.705 127.719 471.236 131.188 479.58 131.188C487.955 131.188 493.361 127.719 493.393 121.938C493.361 116.312 487.955 112.719 479.58 112.688C471.236 112.719 465.705 116.312 465.705 121.938ZM470.393 139.312H500.393V143.062H470.455V157.062H509.08V151.875H477.33V147.875H507.33V134.25H470.393V139.312ZM472.455 121.938C472.424 119.25 475.205 117.656 479.58 117.688C483.955 117.656 486.768 119.25 486.768 121.938C486.768 124.719 483.955 126.156 479.58 126.188C475.205 126.156 472.424 124.719 472.455 121.938ZM561.425 105.75V102.875H554.113V105.75C554.113 112.906 546.175 120.062 534.238 121.625L536.988 127.25C546.488 125.812 554.081 121.094 557.769 114.719C561.456 121.094 569.081 125.812 578.675 127.25L581.425 121.625C569.363 120.062 561.394 112.844 561.425 105.75ZM531.988 137.875H554.175V157.562H561.05V137.875H583.488V132.125H531.988V137.875ZM621.27 137.812V135.5H614.52V137.812C614.489 143.312 610.957 149.062 603.645 151.625L607.082 156.688C612.301 154.812 615.895 151.281 617.926 146.938C619.707 151.406 623.082 155.219 628.457 157.188C633.582 155.125 636.895 151.188 638.739 146.719C640.707 151.25 644.332 154.844 649.832 156.688L653.207 151.625C645.801 149.281 642.301 143.719 642.332 137.812V135.5H635.52V137.812C635.489 142.094 633.207 147.219 628.27 150.562C623.426 147.438 621.27 142.531 621.27 137.812ZM602.207 117.562C602.207 125.406 608.707 130.969 617.457 130.938C626.176 130.969 632.676 125.406 632.645 117.562C632.676 109.625 626.176 104.125 617.457 104.125C608.707 104.125 602.207 109.625 602.207 117.562ZM609.02 117.562C608.989 112.938 612.52 109.969 617.457 110C622.301 109.969 625.832 112.938 625.832 117.562C625.832 122.188 622.301 125.156 617.457 125.188C612.52 125.156 608.989 122.188 609.02 117.562ZM641.27 133.125H648.27V101.125H641.27V133.125ZM671.318 105.188C662.818 105.188 656.786 112.938 656.818 125.125C656.786 137.406 662.818 145.125 671.318 145.125C679.161 145.125 684.911 138.406 685.661 127.5H696.38V157.625H703.255V101.062H696.38V121.875H685.599C684.599 111.562 678.943 105.188 671.318 105.188ZM663.505 125.125C663.474 116.5 666.661 111.438 671.318 111.438C676.005 111.438 679.161 116.5 679.193 125.125C679.161 133.812 676.005 138.844 671.318 138.875C666.661 138.844 663.474 133.812 663.505 125.125Z" fill="white"/>
<rect x="205" width="250" height="87" fill="#00C4B4"/>
<path d="M348.687 2.97383C348.95 2.74812 349.136 2.44782 349.223 2.11321C349.309 1.7786 349.29 1.42572 349.169 1.10198C349.048 0.778249 348.831 0.499077 348.546 0.302095C348.261 0.105113 347.923 -0.000275643 347.576 1.39718e-06L248.648 5.72147e-06C237.072 6.22749e-06 225.97 4.58304 217.784 12.7409C209.599 20.8987 205 31.9631 205 43.5C205 55.0369 209.599 66.1013 217.784 74.2591C225.97 82.417 237.072 87 248.648 87L348.291 87C348.581 86.9953 348.864 86.9033 349.102 86.7358C349.339 86.5684 349.52 86.3333 349.621 86.0615C349.723 85.7896 349.739 85.4937 349.669 85.2124C349.598 84.9311 349.444 84.6775 349.227 84.4849L343.973 79.9135C343.538 79.5334 343.19 79.0651 342.951 78.54C342.712 78.0149 342.589 77.4449 342.589 76.8684C342.589 76.2919 342.712 75.722 342.951 75.1969C343.19 74.6718 343.538 74.2035 343.973 73.8234L349.751 68.7933C350.186 68.4132 350.534 67.9449 350.773 67.4198C351.012 66.8947 351.135 66.3248 351.135 65.7483C351.135 65.1717 351.012 64.6018 350.773 64.0767C350.534 63.5515 350.186 63.0834 349.751 62.7033L343.973 57.6731C343.538 57.2931 343.19 56.8248 342.951 56.2997C342.712 55.7745 342.589 55.2046 342.589 54.628C342.589 54.0515 342.712 53.4817 342.951 52.9565C343.19 52.4314 343.538 51.9631 343.973 51.5831L349.751 46.5371C350.185 46.1585 350.534 45.6916 350.772 45.1677C351.011 44.6439 351.135 44.0753 351.135 43.5C351.135 42.9247 351.011 42.3561 350.772 41.8323C350.534 41.3084 350.185 40.8415 349.751 40.4629L343.973 35.4169C343.538 35.0369 343.19 34.5686 342.951 34.0435C342.712 33.5183 342.589 32.9485 342.589 32.372C342.589 31.7954 342.712 31.2255 342.951 30.7003C343.19 30.1752 343.538 29.7069 343.973 29.3269L349.751 24.2967C350.186 23.9166 350.534 23.4485 350.773 22.9233C351.012 22.3982 351.135 21.8283 351.135 21.2517C351.135 20.6752 351.012 20.1053 350.773 19.5802C350.534 19.0551 350.186 18.5868 349.751 18.2067L343.973 13.1766C343.538 12.7965 343.19 12.3282 342.951 11.8031C342.712 11.278 342.589 10.7081 342.589 10.1316C342.589 9.55506 342.712 8.98511 342.951 8.45999C343.19 7.93486 343.538 7.46658 343.973 7.08652L348.687 2.97383Z" fill="white"/>
<path fill-rule="evenodd" clip-rule="evenodd" d="M255.443 42.4793C255.443 34.3914 251.115 27.5565 245.989 27.5565C245.045 27.5565 244.129 27.7882 243.262 28.2167C247.376 29.6517 250.455 35.494 250.455 42.483C250.455 49.467 247.38 55.3059 243.271 56.7462C244.135 57.1719 245.048 57.4019 245.989 57.4019C251.115 57.4019 255.443 50.5671 255.443 42.4793ZM232 42.4793C232 31.7258 238.265 23 245.989 23C253.712 23 260 31.7258 260 42.4793C260 53.2327 253.712 61.9585 245.989 61.9585C238.265 61.9585 232 53.2327 232 42.4793Z" fill="black"/>
<path fill-rule="evenodd" clip-rule="evenodd" d="M288.443 42.4793C288.443 34.3914 284.115 27.5565 278.989 27.5565C278.045 27.5565 277.129 27.7882 276.262 28.2167C280.376 29.6517 283.455 35.494 283.455 42.483C283.455 49.467 280.38 55.3059 276.271 56.7462C277.135 57.1719 278.048 57.4019 278.989 57.4019C284.115 57.4019 288.443 50.5671 288.443 42.4793ZM265 42.4793C265 31.7258 271.265 23 278.989 23C286.712 23 293 31.7258 293 42.4793C293 53.2327 286.712 61.9585 278.989 61.9585C271.265 61.9585 265 53.2327 265 42.4793Z" fill="black"/>
<path d="M400.001 66.7116L418.871 47.5852H373V38.4188H418.871L400.001 19.3162L406.287 13.0039L435.848 43.002L406.287 73.0002L400.001 66.7116Z" fill="white"/>
</svg>
