<svg width="24" height="25" viewBox="0 0 24 25" fill="none" xmlns="http://www.w3.org/2000/svg">
<circle cx="12" cy="12.5" r="12" fill="#5869FF"/>
<path fill-rule="evenodd" clip-rule="evenodd" d="M18.5029 8.24676C18.6609 8.40495 18.7497 8.61941 18.7497 8.84301C18.7497 9.0666 18.6609 9.28105 18.5029 9.43926L10.3467 17.5955C10.1885 17.7535 9.97404 17.8422 9.75044 17.8422C9.52685 17.8422 9.31239 17.7535 9.15419 17.5955L5.49794 13.9393C5.3489 13.7793 5.26777 13.5678 5.27162 13.3492C5.27547 13.1306 5.36402 12.922 5.51862 12.7674C5.67321 12.6128 5.88177 12.5243 6.10036 12.5204C6.31895 12.5166 6.53049 12.5977 6.69044 12.7468L9.75044 15.8068L17.3104 8.24676C17.4686 8.08875 17.683 8 17.9067 8C18.1302 8 18.3448 8.08875 18.5029 8.24676Z" fill="white"/>
</svg>
