<svg width="32" height="32" viewBox="0 0 32 32" fill="none" xmlns="http://www.w3.org/2000/svg">
<circle cx="16" cy="16" r="16" fill="#00C4B4"/>
<path fill-rule="evenodd" clip-rule="evenodd" d="M24.67 10.33C24.8806 10.5409 24.9989 10.8269 24.9989 11.125C24.9989 11.4231 24.8806 11.709 24.67 11.92L13.795 22.795C13.584 23.0056 13.2981 23.1239 13 23.1239C12.7019 23.1239 12.4159 23.0056 12.205 22.795L7.32999 17.92C7.13127 17.7067 7.02309 17.4247 7.02822 17.1332C7.03337 16.8417 7.15143 16.5637 7.35756 16.3575C7.56367 16.1514 7.84176 16.0334 8.13321 16.0282C8.42466 16.0231 8.70672 16.1313 8.91999 16.33L13 20.41L23.08 10.33C23.2909 10.1193 23.5768 10.001 23.875 10.001C24.173 10.001 24.4591 10.1193 24.67 10.33Z" fill="white"/>
</svg>
