<svg width="34" height="35" viewBox="0 0 34 35" fill="none" xmlns="http://www.w3.org/2000/svg">
<path d="M15.333 27.5007H18.6663V24.1673H15.333V27.5007ZM16.9997 0.833984C7.79967 0.833984 0.333008 8.30065 0.333008 17.5007C0.333008 26.7007 7.79967 34.1673 16.9997 34.1673C26.1997 34.1673 33.6663 26.7007 33.6663 17.5007C33.6663 8.30065 26.1997 0.833984 16.9997 0.833984ZM16.9997 30.834C9.64968 30.834 3.66634 24.8507 3.66634 17.5007C3.66634 10.1507 9.64968 4.16732 16.9997 4.16732C24.3497 4.16732 30.333 10.1507 30.333 17.5007C30.333 24.8507 24.3497 30.834 16.9997 30.834ZM16.9997 7.50065C13.3163 7.50065 10.333 10.484 10.333 14.1673H13.6663C13.6663 12.334 15.1663 10.834 16.9997 10.834C18.833 10.834 20.333 12.334 20.333 14.1673C20.333 17.5007 15.333 17.084 15.333 22.5007H18.6663C18.6663 18.7507 23.6663 18.334 23.6663 14.1673C23.6663 10.484 20.683 7.50065 16.9997 7.50065Z" fill="#00C4B4"/>
</svg>
