<svg width="129" height="40" viewBox="0 0 129 40" fill="none" xmlns="http://www.w3.org/2000/svg">
<path d="M28.333 20.834C28.6909 21.3124 29.1475 21.7083 29.6718 21.9947C30.1961 22.2812 30.7759 22.4516 31.3719 22.4942C31.9678 22.5369 32.566 22.4509 33.1258 22.2421C33.6856 22.0333 34.1939 21.7065 34.6163 21.284L37.1163 18.784C37.8753 17.9981 38.2953 16.9456 38.2858 15.8531C38.2763 14.7606 37.8381 13.7156 37.0656 12.943C36.2931 12.1705 35.248 11.7323 34.1555 11.7228C33.063 11.7133 32.0105 12.1333 31.2247 12.8923L29.7913 14.3173" stroke="white" stroke-width="2" stroke-linecap="round" stroke-linejoin="round"/>
<path d="M31.6668 19.167C31.309 18.6886 30.8524 18.2927 30.328 18.0062C29.8037 17.7198 29.2239 17.5494 28.628 17.5067C28.032 17.4641 27.4338 17.55 26.874 17.7589C26.3142 17.9677 25.8059 18.2945 25.3835 18.717L22.8835 21.217C22.1245 22.0029 21.7045 23.0554 21.714 24.1479C21.7235 25.2403 22.1617 26.2854 22.9343 27.0579C23.7068 27.8305 24.7518 28.2687 25.8443 28.2782C26.9368 28.2877 27.9893 27.8677 28.7752 27.1087L30.2002 25.6837" stroke="white" stroke-width="2" stroke-linecap="round" stroke-linejoin="round"/>
<path d="M56.6562 14.1875V21.5625C56.6484 23.2031 55.5234 24.3828 53.6562 24.3906C51.7891 24.3828 50.6484 23.2031 50.6562 21.5625V14.1875H49.25V21.6719C49.25 24 50.9844 25.6953 53.6562 25.7031C56.3203 25.6953 58.0625 24 58.0625 21.6719V14.1875H56.6562ZM60.4025 25.5H61.8088V21.1094H64.2619C64.3556 21.1094 64.4494 21.1094 64.5353 21.1016L66.9025 25.5H68.5431L65.9963 20.8438C67.4338 20.3438 68.1056 19.1719 68.1056 17.6719C68.1056 15.6562 66.8947 14.1875 64.2463 14.1875H60.4025V25.5ZM61.8088 19.8281V15.4375H64.1838C66.0041 15.4375 66.7072 16.3203 66.715 17.6719C66.7072 19.0156 66.0041 19.8281 64.1994 19.8281H61.8088ZM69.9769 25.5H76.6331V24.25H71.3831V14.1875H69.9769V25.5ZM94.1725 20.0625H88.4538V18.3906H92.5163V13.2031H91.2975V14.8125H84.4225V13.2031H83.2038V18.3906H87.235V20.0625H81.5163V21.0781H94.1725V20.0625ZM82.9225 23.4375H91.3756V26.7656H92.61V22.4531H82.9225V23.4375ZM84.4225 17.4062V15.75H91.2975V17.4062H84.4225ZM99.8406 16.6094V14.0781H98.6375V16.6094C98.6219 19.1484 97.0125 21.8125 94.9813 22.8125L95.7625 23.7969C97.325 22.9609 98.6375 21.2031 99.2547 19.1562C99.8719 21.0859 101.153 22.7344 102.684 23.5312L103.434 22.5469C101.458 21.5781 99.8406 19.0547 99.8406 16.6094ZM104.716 26.7656H105.934V19.5781H108.263V18.5156H105.934V12.875H104.716V26.7656Z" fill="white"/>
<rect x="0.5" y="0.5" width="128" height="39" rx="19.5" stroke="#CFD3E2"/>
</svg>
