<svg width="46" height="46" viewBox="0 0 46 46" fill="none" xmlns="http://www.w3.org/2000/svg">
<circle cx="23" cy="23" r="22.5" fill="white" fill-opacity="0.9"/>
<path d="M30.7451 16.7295L14.5156 16.7295" stroke="black" stroke-width="2" stroke-linecap="round" stroke-linejoin="round"/>
<path d="M20.418 21.1558V27.0574" stroke="black" stroke-width="2" stroke-linecap="round" stroke-linejoin="round"/>
<path d="M24.8442 21.1558V27.0574" stroke="black" stroke-width="2" stroke-linecap="round" stroke-linejoin="round"/>
<path d="M29.2699 16.7295V30.7459C29.2699 30.9415 29.1922 31.1292 29.0538 31.2675C28.9155 31.4059 28.7278 31.4836 28.5322 31.4836H16.7289C16.5333 31.4836 16.3456 31.4059 16.2073 31.2675C16.0689 31.1292 15.9912 30.9415 15.9912 30.7459V16.7295" stroke="black" stroke-width="2" stroke-linecap="round" stroke-linejoin="round"/>
<path d="M26.3194 16.7291V15.2537C26.3194 14.8624 26.164 14.4872 25.8873 14.2105C25.6106 13.9338 25.2353 13.7783 24.844 13.7783H20.4178C20.0265 13.7783 19.6512 13.9338 19.3745 14.2105C19.0978 14.4872 18.9424 14.8624 18.9424 15.2537V16.7291" stroke="black" stroke-width="2" stroke-linecap="round" stroke-linejoin="round"/>
</svg>
