<svg width="250" height="250" viewBox="0 0 250 250" fill="none" xmlns="http://www.w3.org/2000/svg">
<path d="M0 10C0 4.47716 4.47715 0 10 0H240C245.523 0 250 4.47715 250 10V240C250 245.523 245.523 250 240 250H10C4.47716 250 0 245.523 0 240V10Z" fill="#393A47"/>
<path d="M138.5 110V122C138.5 122.796 138.184 123.559 137.621 124.121C137.059 124.684 136.296 125 135.5 125H114.5C113.704 125 112.941 124.684 112.379 124.121C111.816 123.559 111.5 122.796 111.5 122V101C111.5 100.204 111.816 99.4413 112.379 98.8787C112.941 98.3161 113.704 98 114.5 98H126.5" stroke="white" stroke-width="2" stroke-linecap="round" stroke-linejoin="round"/>
<path d="M119.75 108.5C120.347 108.5 120.919 108.263 121.341 107.841C121.763 107.419 122 106.847 122 106.25C122 105.653 121.763 105.081 121.341 104.659C120.919 104.237 120.347 104 119.75 104C119.153 104 118.581 104.237 118.159 104.659C117.737 105.081 117.5 105.653 117.5 106.25C117.5 106.847 117.737 107.419 118.159 107.841C118.581 108.263 119.153 108.5 119.75 108.5Z" stroke="white" stroke-width="2" stroke-linecap="round" stroke-linejoin="round"/>
<path d="M138.5 116L131 108.5L114.5 125" stroke="white" stroke-width="2" stroke-linecap="round" stroke-linejoin="round"/>
<path d="M135.5 96.5V105.5" stroke="white" stroke-width="2" stroke-linecap="round" stroke-linejoin="round"/>
<path d="M140 101H131" stroke="white" stroke-width="2" stroke-linecap="round" stroke-linejoin="round"/>
<path d="M73.9588 142.453H72.8787V154.635H73.9588V142.453ZM64.3885 147.635C64.3953 150.226 65.6805 151.866 67.492 151.859C69.2967 151.866 70.6023 150.226 70.5955 147.635C70.6023 145.051 69.2967 143.403 67.492 143.396C65.6805 143.403 64.3953 145.051 64.3885 147.635ZM65.4275 147.635C65.4275 145.659 66.2752 144.36 67.492 144.354C68.7156 144.36 69.5564 145.659 69.5564 147.635C69.5564 149.61 68.7156 150.909 67.492 150.902C66.2752 150.909 65.4275 149.61 65.4275 147.635ZM82.227 143.656H76.6079V151.559H82.227V143.656ZM77.6606 150.684V144.518H81.1743V150.684H77.6606ZM84.8383 154.635H85.9184V142.453H84.8383V154.635ZM92.2042 146.186V144.6H95.1026V143.711H88.253V144.6H91.1241V146.186C91.1173 148.291 89.5997 150.588 87.8565 151.422L88.4991 152.27C89.8868 151.572 91.1173 150.027 91.6846 148.243C92.252 149.925 93.4757 151.326 94.8975 151.969L95.4991 151.121C93.7081 150.349 92.211 148.25 92.2042 146.186ZM96.7979 154.607H97.878V142.453H96.7979V154.607ZM110.931 148.1H99.8025V148.947H110.931V148.1ZM101.142 150.725H108.47V151.764H101.156V154.443H109.933V153.664H102.236V152.502H109.537V149.918H101.142V150.725ZM101.211 143.602H108.416V144.6H101.252V147.184H109.715V146.404H102.318V145.338H109.496V142.822H101.211V143.602ZM126.237 148.236H115.149V149.139H126.237V148.236ZM116.489 152.393C116.482 153.801 118.062 154.58 120.687 154.58C123.291 154.58 124.856 153.801 124.87 152.393C124.856 150.998 123.291 150.205 120.687 150.205C118.062 150.205 116.482 150.998 116.489 152.393ZM116.558 147.074H124.938V146.199H117.61V143.848H124.856V142.945H116.558V147.074ZM117.583 152.393C117.569 151.545 118.738 151.053 120.687 151.039C122.614 151.053 123.783 151.545 123.79 152.393C123.783 153.247 122.614 153.732 120.687 153.732C118.738 153.732 117.569 153.247 117.583 152.393ZM138.224 149.152H133.179V147.867H137.048V147.006H129.611V145.707H136.789V142.768H128.504V143.643H135.709V144.9H128.545V147.867H132.127V149.152H127.095V150.041H138.224V149.152ZM128.339 151.846H135.777V154.498H136.857V150.971H128.339V151.846ZM145.139 144.559H142.637V142.822H141.571V144.559H139.041V145.434H145.139V144.559ZM139.479 149.016C139.479 150.649 140.579 151.798 142.09 151.805C143.621 151.798 144.715 150.649 144.729 149.016C144.715 147.402 143.621 146.261 142.09 146.254C140.579 146.261 139.479 147.402 139.479 149.016ZM140.436 149.016C140.436 147.949 141.126 147.17 142.09 147.156C143.061 147.17 143.772 147.949 143.772 149.016C143.772 150.096 143.061 150.868 142.09 150.861C141.126 150.868 140.436 150.096 140.436 149.016ZM145.768 154.006H146.78V148.469H148.393V154.607H149.418V142.453H148.393V147.58H146.78V142.754H145.768V154.006ZM157.167 144.176V144.094H161.05V143.219H152.067V144.094H155.964V144.176C155.957 145.803 153.797 147.184 151.684 147.498L152.108 148.346C153.975 148.024 155.827 147.013 156.565 145.55C157.304 147.013 159.156 148.024 161.05 148.346L161.446 147.498C159.327 147.184 157.16 145.803 157.167 144.176ZM151.028 150.273H156.018V154.607H157.071V150.273H162.102V149.385H151.028V150.273ZM166.597 145.912V143.602H165.558V145.953C165.558 148.038 164.533 150.191 162.851 151.176L163.535 151.982C164.752 151.244 165.654 149.85 166.098 148.229C166.522 149.713 167.363 151.012 168.539 151.723L169.154 150.889C167.541 149.932 166.597 147.847 166.597 145.912ZM167.814 147.73H169.878V153.992H170.89V142.713H169.878V146.814H167.814V147.73ZM172.367 154.607H173.406V142.453H172.367V154.607ZM186.076 152.146H183.315V148.838C184.32 148.298 184.928 147.437 184.928 146.35C184.928 144.47 183.082 143.232 180.485 143.219C177.887 143.232 176.041 144.47 176.041 146.35C176.041 147.457 176.67 148.332 177.709 148.872V152.146H174.947V153.049H186.076V152.146ZM177.08 146.35C177.073 144.989 178.488 144.094 180.485 144.107C182.46 144.094 183.889 144.989 183.889 146.35C183.889 147.71 182.46 148.619 180.485 148.619C178.488 148.619 177.073 147.71 177.08 146.35ZM178.762 152.146V149.262C179.281 149.398 179.863 149.467 180.485 149.467C181.12 149.467 181.708 149.392 182.235 149.255V152.146H178.762Z" fill="white"/>
<path d="M10 1H240V-1H10V1ZM249 10V240H251V10H249ZM240 249H10V251H240V249ZM1 240V10H-1V240H1ZM10 249C5.02944 249 1 244.971 1 240H-1C-1 246.075 3.92487 251 10 251V249ZM249 240C249 244.971 244.971 249 240 249V251C246.075 251 251 246.075 251 240H249ZM240 1C244.971 1 249 5.02944 249 10H251C251 3.92487 246.075 -1 240 -1V1ZM10 -1C3.92487 -1 -1 3.92487 -1 10H1C1 5.02944 5.02944 1 10 1V-1Z" fill="#00C4B4"/>
</svg>
