<svg width="157" height="157" viewBox="0 0 157 157" fill="none" xmlns="http://www.w3.org/2000/svg">
<rect width="157" height="157" rx="10" fill="black"/>
<path d="M117.693 68.0633C116.729 64.5956 115.368 61.3691 113.619 58.3757C111.87 55.3824 109.755 52.6456 107.275 50.1654C104.794 47.6852 102.058 45.5704 99.0642 43.821C96.0709 42.0717 92.8442 40.711 89.3766 39.747C88.5058 39.5059 87.6195 39.296 86.7332 39.1172V55.2502C87.2618 55.4368 87.7905 55.6311 88.3115 55.8566C91.3592 57.1706 94.0027 58.951 96.2497 61.1902C98.4966 63.4372 100.269 66.0807 101.583 69.1284C102.897 72.1762 103.55 75.4106 103.55 78.8393C103.55 82.2681 102.897 85.4869 101.583 88.4958C100.269 91.5047 98.4888 94.1404 96.2497 96.4029C94.0027 98.6654 91.3592 100.454 88.3115 101.768C87.7905 101.993 87.2696 102.187 86.7332 102.374V118.624C87.6195 118.445 88.5058 118.235 89.3766 117.994C92.8442 117.03 96.0709 115.661 99.0642 113.889C102.058 112.116 104.794 109.993 107.275 107.513C109.755 105.033 111.87 102.289 113.619 99.2796C115.368 96.2707 116.729 93.0441 117.693 89.5921C118.657 86.1478 119.147 82.5635 119.147 78.8393C119.147 75.1151 118.665 71.5231 117.693 68.0633Z" fill="white"/>
<path d="M71.0357 102.576C70.2971 102.342 69.574 102.078 68.8587 101.767C65.8343 100.453 63.183 98.6649 60.9283 96.4023C58.6658 94.1398 56.8775 91.5041 55.5636 88.4952C54.2496 85.4863 53.5965 82.2675 53.5965 78.8388C53.5965 75.41 54.2496 72.1756 55.5636 69.1279C56.8775 66.0801 58.6658 63.4366 60.9283 61.1897C63.1908 58.9505 65.8343 57.17 68.8587 55.8561C69.574 55.5451 70.2971 55.2807 71.0357 55.0475V39C69.9628 39.2021 68.8976 39.4509 67.848 39.7386C64.4037 40.7027 61.1693 42.0633 58.1604 43.8127C55.1515 45.562 52.407 47.6768 49.9268 50.157C47.4465 52.6372 45.324 55.374 43.5513 58.3674C41.7786 61.3607 40.4102 64.5873 39.4461 68.0549C38.482 71.5226 38 75.1146 38 78.831C38 82.5474 38.482 86.1394 39.4461 89.5837C40.4102 93.028 41.7786 96.2624 43.5513 99.2713C45.324 102.28 47.4465 105.025 49.9268 107.505C52.407 109.985 55.1515 112.108 58.1604 113.88C61.1693 115.653 64.3959 117.021 67.848 117.986C68.8976 118.281 69.9628 118.522 71.0357 118.724V102.568V102.576Z" fill="white"/>
</svg>
