<svg width="144" height="144" viewBox="0 0 144 144" fill="none" xmlns="http://www.w3.org/2000/svg">
<rect width="144" height="144" rx="10" fill="black"/>
<path d="M19.9583 87.2704H13.7579V56.293H26.1587C27.2975 56.293 28.3903 56.4403 29.4431 56.735C30.4929 57.0297 31.4782 57.4471 32.3929 57.9873C33.3076 58.5276 34.1425 59.1752 34.8976 59.9303C35.6527 60.6854 36.3004 61.5265 36.8406 62.4473C37.3809 63.3682 37.7983 64.3566 38.093 65.4063C38.3877 66.4592 38.535 67.5519 38.535 68.6907C38.535 70.3912 38.2096 71.9935 37.562 73.4976C36.9143 75.0016 36.0272 76.3154 34.9038 77.4388C33.7803 78.5622 32.4666 79.4493 30.9625 80.097C29.4585 80.7447 27.8562 81.07 26.1557 81.07H19.9583V87.2704ZM19.9583 62.4934V74.8911H26.1587C27.009 74.8911 27.8071 74.7284 28.556 74.4061C29.305 74.0808 29.9588 73.6388 30.5205 73.077C31.0822 72.5153 31.5242 71.8554 31.8496 71.1003C32.175 70.3452 32.3346 69.541 32.3346 68.6907C32.3346 67.8405 32.1719 67.0393 31.8496 66.2811C31.5242 65.526 31.0822 64.8661 30.5205 64.3044C29.9588 63.7427 29.3019 63.3007 28.556 62.9753C27.8071 62.6499 27.009 62.4903 26.1587 62.4903H19.9583V62.4934Z" fill="white"/>
<path d="M101.009 74.8911C101.009 76.6039 100.683 78.2154 100.036 79.7195C99.3879 81.2235 98.5009 82.5342 97.3774 83.6515C96.254 84.7688 94.9402 85.6497 93.4362 86.2974C91.9321 86.9451 90.3206 87.2704 88.6078 87.2704C86.8951 87.2704 85.2836 86.9451 83.7795 86.2974C82.2754 85.6497 80.9648 84.7688 79.8475 83.6515C78.7302 82.5342 77.8492 81.2235 77.2015 79.7195C76.5539 78.2154 76.2285 76.6039 76.2285 74.8911V56.293H82.4074V74.8911C82.4074 75.7414 82.5701 76.5394 82.8924 77.2884C83.2178 78.0374 83.6598 78.6912 84.2215 79.2529C84.7832 79.8146 85.4432 80.2566 86.1983 80.582C86.9534 80.9074 87.7576 81.067 88.6078 81.067C89.4581 81.067 90.2592 80.9043 91.0174 80.582C91.7725 80.2566 92.4325 79.8146 92.9942 79.2529C93.5559 78.6912 93.9979 78.0374 94.3233 77.2884C94.6456 76.5394 94.8082 75.7414 94.8082 74.8911V56.293H101.009V74.8911Z" fill="white"/>
<path d="M131.038 84.1365C129.598 85.3612 127.993 86.3005 126.222 86.9543C124.451 87.6081 122.606 87.9366 120.691 87.9366C119.22 87.9366 117.808 87.7463 116.445 87.3656C115.086 86.985 113.812 86.4448 112.633 85.7449C111.451 85.0451 110.371 84.2102 109.392 83.2402C108.413 82.2672 107.578 81.1867 106.887 79.9988C106.196 78.8109 105.659 77.534 105.279 76.165C104.898 74.796 104.708 73.3779 104.708 71.9107C104.708 70.4434 104.898 69.0315 105.279 67.6778C105.659 66.3242 106.196 65.0534 106.887 63.8655C107.578 62.6776 108.413 61.5971 109.392 60.6241C110.371 59.651 111.451 58.8192 112.633 58.1286C113.815 57.4379 115.086 56.9008 116.445 56.5201C117.805 56.1395 119.22 55.9492 120.691 55.9492C122.606 55.9492 124.451 56.2777 126.222 56.9315C127.993 57.5883 129.598 58.5276 131.038 59.7493L127.796 65.1485C126.86 64.197 125.78 63.4511 124.555 62.9139C123.33 62.3737 122.041 62.1036 120.687 62.1036C119.334 62.1036 118.063 62.3614 116.875 62.8802C115.687 63.3989 114.647 64.1018 113.753 64.9858C112.86 65.8729 112.154 66.9074 111.636 68.0953C111.117 69.2832 110.859 70.5539 110.859 71.9076C110.859 73.2612 111.117 74.5566 111.636 75.7537C112.154 76.9477 112.86 77.9944 113.753 78.8846C114.647 79.7778 115.687 80.4838 116.875 81.0025C118.063 81.5213 119.334 81.7791 120.687 81.7791C121.464 81.7791 122.222 81.687 122.956 81.4967C123.689 81.3095 124.389 81.0517 125.052 80.7201V71.9076H131.035V84.1334L131.038 84.1365Z" fill="white"/>
<path d="M71.9435 67.5157C71.5629 66.1467 71.0257 64.8728 70.3351 63.6911C69.6444 62.5093 68.8095 61.4288 67.8303 60.4497C66.8512 59.4705 65.7707 58.6356 64.5889 57.9449C63.4072 57.2543 62.1333 56.7171 60.7643 56.3365C60.4205 56.2414 60.0706 56.1585 59.7207 56.0879V62.4571C59.9294 62.5308 60.1382 62.6075 60.3438 62.6965C61.5471 63.2153 62.5907 63.9182 63.4778 64.8022C64.3649 65.6893 65.0647 66.7329 65.5835 67.9362C66.1022 69.1394 66.36 70.4163 66.36 71.77C66.36 73.1237 66.1022 74.3944 65.5835 75.5823C65.0647 76.7702 64.3618 77.8108 63.4778 78.704C62.5907 79.5972 61.5471 80.3032 60.3438 80.822C60.1382 80.911 59.9325 80.9877 59.7207 81.0614V87.4767C60.0706 87.4061 60.4205 87.3232 60.7643 87.228C62.1333 86.8474 63.4072 86.3072 64.5889 85.6073C65.7707 84.9075 66.8512 84.0695 67.8303 83.0903C68.8095 82.1112 69.6444 81.0276 70.3351 79.8397C71.0257 78.6518 71.5629 77.378 71.9435 76.0151C72.3241 74.6553 72.5175 73.2403 72.5175 71.77C72.5175 70.2997 72.3272 68.8816 71.9435 67.5157Z" fill="white"/>
<path d="M53.5234 81.1404C53.2318 81.0483 52.9463 80.9439 52.664 80.8212C51.4699 80.3024 50.4232 79.5964 49.5331 78.7032C48.6398 77.81 47.9338 76.7694 47.4151 75.5815C46.8963 74.3936 46.6385 73.1228 46.6385 71.7692C46.6385 70.4155 46.8963 69.1386 47.4151 67.9354C47.9338 66.7321 48.6398 65.6885 49.5331 64.8014C50.4263 63.9174 51.4699 63.2145 52.664 62.6957C52.9463 62.5729 53.2318 62.4686 53.5234 62.3765V56.041C53.0998 56.1208 52.6793 56.219 52.2649 56.3326C50.9051 56.7132 49.6282 57.2504 48.4403 57.941C47.2524 58.6317 46.1689 59.4666 45.1897 60.4458C44.2105 61.4249 43.3726 62.5054 42.6727 63.6872C41.9729 64.8689 41.4326 66.1428 41.052 67.5118C40.6714 68.8808 40.4811 70.2989 40.4811 71.7661C40.4811 73.2333 40.6714 74.6514 41.052 76.0112C41.4326 77.371 41.9729 78.6479 42.6727 79.8358C43.3726 81.0237 44.2105 82.1073 45.1897 83.0865C46.1689 84.0656 47.2524 84.9036 48.4403 85.6034C49.6282 86.3033 50.9021 86.8435 52.2649 87.2241C52.6793 87.3408 53.0998 87.4359 53.5234 87.5158V81.1373V81.1404Z" fill="white"/>
</svg>
