<svg width="54" height="14" viewBox="0 0 62 17" fill="none" xmlns="http://www.w3.org/2000/svg">
<path d="M3.27785 16.1667H0V0.671875H6.55569C7.15771 0.671875 7.73539 0.745572 8.29198 0.892967C8.84694 1.04036 9.36783 1.24917 9.85139 1.51939C10.335 1.78962 10.7763 2.11358 11.1755 2.49128C11.5747 2.86898 11.9171 3.28967 12.2027 3.75027C12.4883 4.21088 12.709 4.70527 12.8647 5.23036C13.0205 5.75699 13.0984 6.30358 13.0984 6.8732C13.0984 7.72379 12.9264 8.52525 12.584 9.27757C12.2416 10.0299 11.7727 10.687 11.1788 11.249C10.5848 11.8109 9.89034 12.2546 9.09521 12.5786C8.30009 12.9026 7.45305 13.0653 6.55407 13.0653H3.27785V16.1667ZM3.27785 3.7733V9.97463H6.55569C7.00518 9.97463 7.42708 9.89325 7.82302 9.73204C8.21896 9.56929 8.56459 9.3482 8.86155 9.06723C9.1585 8.78626 9.39217 8.45616 9.56417 8.07846C9.73618 7.70076 9.82056 7.29849 9.82056 6.8732C9.82056 6.4479 9.73456 6.04717 9.56417 5.66794C9.39217 5.29024 9.1585 4.96014 8.86155 4.67917C8.56459 4.3982 8.21734 4.1771 7.82302 4.01436C7.42708 3.85161 7.00518 3.77177 6.55569 3.77177H3.27785V3.7733Z" fill="#9C9EAE"/>
<path d="M46.1249 9.97463C46.1249 10.8314 45.9529 11.6374 45.6105 12.3898C45.2681 13.1421 44.7992 13.7977 44.2053 14.3566C43.6114 14.9154 42.9169 15.3561 42.1217 15.68C41.3266 16.004 40.4747 16.1667 39.5692 16.1667C38.6638 16.1667 37.8119 16.004 37.0167 15.68C36.2216 15.3561 35.5287 14.9154 34.9381 14.3566C34.3474 13.7977 33.8817 13.1421 33.5393 12.3898C33.1969 11.6374 33.0249 10.8314 33.0249 9.97463V0.671875H36.2914V9.97463C36.2914 10.3999 36.3774 10.7991 36.5478 11.1737C36.7198 11.5484 36.9535 11.8754 37.2504 12.1564C37.5474 12.4373 37.8962 12.6584 38.2954 12.8212C38.6946 12.9839 39.1198 13.0638 39.5692 13.0638C40.0187 13.0638 40.4422 12.9824 40.8431 12.8212C41.2422 12.6584 41.5911 12.4373 41.8881 12.1564C42.185 11.8754 42.4187 11.5484 42.5907 11.1737C42.7611 10.7991 42.8471 10.3999 42.8471 9.97463V0.671875H46.1249V9.97463Z" fill="#9C9EAE"/>
<path d="M62.0001 14.5992C61.239 15.2118 60.3903 15.6817 59.4541 16.0087C58.5178 16.3357 57.5425 16.5 56.53 16.5C55.7527 16.5 55.0062 16.4048 54.2858 16.2144C53.5669 16.024 52.8935 15.7538 52.2704 15.4038C51.6456 15.0537 51.0744 14.6361 50.5568 14.1509C50.0392 13.6642 49.5978 13.1237 49.2327 12.5296C48.8676 11.9354 48.5836 11.2967 48.3824 10.6119C48.1812 9.92712 48.0806 9.21778 48.0806 8.48388C48.0806 7.74998 48.1812 7.04371 48.3824 6.36662C48.5836 5.68952 48.8676 5.05388 49.2327 4.4597C49.5978 3.86551 50.0392 3.32506 50.5568 2.83836C51.0744 2.35165 51.6456 1.93556 52.2704 1.59011C52.8951 1.24465 53.5669 0.975962 54.2858 0.785577C55.0046 0.595192 55.7527 0.5 56.53 0.5C57.5425 0.5 58.5178 0.664284 59.4541 0.991316C60.3903 1.31988 61.239 1.7897 62.0001 2.40078L60.2865 5.10148C59.7916 4.62552 59.2204 4.25242 58.5729 3.98373C57.9255 3.71351 57.2439 3.5784 56.5283 3.5784C55.8127 3.5784 55.1409 3.70737 54.5129 3.96685C53.885 4.22632 53.3349 4.57792 52.8627 5.0201C52.3904 5.46382 52.0172 5.98124 51.743 6.57543C51.4688 7.16961 51.3325 7.80525 51.3325 8.48234C51.3325 9.15944 51.4688 9.80736 51.743 10.4062C52.0172 11.0034 52.3904 11.527 52.8627 11.9722C53.3349 12.419 53.885 12.7721 54.5129 13.0316C55.1409 13.2911 55.8127 13.4201 56.5283 13.4201C56.9389 13.4201 57.3397 13.374 57.7275 13.2788C58.1153 13.1852 58.4853 13.0562 58.8358 12.8904V8.48234H61.9984V14.5977L62.0001 14.5992Z" fill="#9C9EAE"/>
<path d="M30.7599 6.28646C30.5587 5.60169 30.2747 4.96452 29.9096 4.3734C29.5445 3.78229 29.1031 3.24184 28.5855 2.75206C28.0679 2.26228 27.4967 1.84466 26.8719 1.49921C26.2472 1.15375 25.5738 0.885062 24.8501 0.694677C24.6683 0.647081 24.4833 0.605626 24.2983 0.570312V3.75619C24.4087 3.79304 24.519 3.83142 24.6277 3.87595C25.2638 4.13542 25.8156 4.48702 26.2845 4.9292C26.7535 5.37292 27.1235 5.89495 27.3977 6.49681C27.6719 7.09867 27.8082 7.73738 27.8082 8.41447C27.8082 9.09157 27.6719 9.72721 27.3977 10.3214C27.1235 10.9156 26.7519 11.4361 26.2845 11.8829C25.8156 12.3296 25.2638 12.6828 24.6277 12.9423C24.519 12.9868 24.4103 13.0252 24.2983 13.062V16.2709C24.4833 16.2356 24.6683 16.1941 24.8501 16.1466C25.5738 15.9562 26.2472 15.6859 26.8719 15.3359C27.4967 14.9858 28.0679 14.5667 28.5855 14.0769C29.1031 13.5871 29.5445 13.0451 29.9096 12.4509C30.2747 11.8568 30.5587 11.2196 30.7599 10.5379C30.9611 9.85771 31.0634 9.14991 31.0634 8.41447C31.0634 7.67903 30.9628 6.9697 30.7599 6.28646Z" fill="#9C9EAE"/>
<path d="M21.0223 13.1015C20.8681 13.0555 20.7172 13.0033 20.5679 12.9418C19.9367 12.6824 19.3834 12.3292 18.9128 11.8824C18.4406 11.4357 18.0673 10.9152 17.7931 10.321C17.5189 9.7268 17.3826 9.09116 17.3826 8.41407C17.3826 7.73697 17.5189 7.09826 17.7931 6.4964C18.0673 5.89454 18.4406 5.37252 18.9128 4.9288C19.385 4.48661 19.9367 4.13501 20.5679 3.87554C20.7172 3.81412 20.8681 3.76192 21.0223 3.71586V0.546875C20.7983 0.586794 20.576 0.635926 20.357 0.692734C19.6381 0.883119 18.9631 1.15181 18.3351 1.49726C17.7071 1.84272 17.1343 2.26034 16.6167 2.75012C16.099 3.2399 15.656 3.78035 15.286 4.37146C14.9161 4.96257 14.6305 5.59975 14.4293 6.28452C14.228 6.96929 14.1274 7.67863 14.1274 8.41253C14.1274 9.14643 14.228 9.85577 14.4293 10.5359C14.6305 11.2161 14.9161 11.8548 15.286 12.449C15.656 13.0432 16.099 13.5852 16.6167 14.0749C17.1343 14.5647 17.7071 14.9839 18.3351 15.3339C18.9631 15.684 19.6365 15.9542 20.357 16.1446C20.576 16.203 20.7983 16.2505 21.0223 16.2905V13.1V13.1015Z" fill="#9C9EAE"/>
</svg>
