<svg width="64" height="26" viewBox="0 0 64 26" fill="none" xmlns="http://www.w3.org/2000/svg">
<path d="M20.3125 22.75L12.9992 18.6875L5.6875 22.75V4.0625C5.6875 3.84701 5.7731 3.64035 5.92548 3.48798C6.07785 3.3356 6.28451 3.25 6.5 3.25H19.5C19.7155 3.25 19.9222 3.3356 20.0745 3.48798C20.2269 3.64035 20.3125 3.84701 20.3125 4.0625V22.75Z" fill="#9C9EAE" stroke="#9C9EAE" stroke-width="2" stroke-linecap="round" stroke-linejoin="round"/>
<path d="M47.75 22.75H54.25" stroke="#9C9EAE" stroke-width="2" stroke-linecap="round" stroke-linejoin="round"/>
<path d="M43.7081 10.5624C43.7067 9.59882 43.8961 8.64447 44.2653 7.75439C44.6346 6.86431 45.1763 6.05611 45.8593 5.37637C46.5423 4.69663 47.3531 4.1588 48.245 3.79387C49.1368 3.42895 50.0921 3.24416 51.0557 3.25014C55.0765 3.28003 58.2927 6.62215 58.2927 10.6542V11.3749C58.2927 15.0125 59.0537 17.1233 59.724 18.2769C59.7962 18.4002 59.8346 18.5403 59.8354 18.6832C59.8361 18.8261 59.7992 18.9666 59.7283 19.0906C59.6574 19.2147 59.5551 19.3178 59.4316 19.3897C59.3082 19.4615 59.1679 19.4996 59.0251 19.4999H42.9749C42.832 19.4996 42.6917 19.4615 42.5683 19.3896C42.4448 19.3178 42.3424 19.2146 42.2716 19.0905C42.2007 18.9665 42.1638 18.8259 42.1646 18.683C42.1654 18.5402 42.2038 18.4 42.2761 18.2768C42.9467 17.1231 43.7081 15.0123 43.7081 11.3749L43.7081 10.5624Z" fill="#9C9EAE" stroke="#9C9EAE" stroke-width="2" stroke-linecap="round" stroke-linejoin="round"/>
</svg>
