<svg width="28" height="29" viewBox="0 0 28 29" fill="none" xmlns="http://www.w3.org/2000/svg">
<g clip-path="url(#clip0_815_31418)">
<g filter="url(#filter0_d_815_31418)">
<circle cx="14" cy="14.5" r="14" fill="#393A47"/>
</g>
<path d="M18.7071 13.3382L13.5567 8.26557C13.4721 8.18142 13.3715 8.11463 13.2606 8.06905C13.1497 8.02347 13.0308 8 12.9107 8C12.7905 8 12.6716 8.02347 12.5607 8.06905C12.4498 8.11463 12.3492 8.18142 12.2646 8.26557C12.0951 8.43379 12 8.66134 12 8.89853C12 9.13572 12.0951 9.36327 12.2646 9.53149L16.7689 14.0206L12.2646 18.4647C12.0951 18.633 12 18.8605 12 19.0977C12 19.3349 12.0951 19.5624 12.2646 19.7307C12.3489 19.8155 12.4494 19.883 12.5603 19.9292C12.6712 19.9754 12.7903 19.9995 12.9107 20C13.0311 19.9995 13.1502 19.9754 13.2611 19.9292C13.372 19.883 13.4725 19.8155 13.5567 19.7307L18.7071 14.658C18.7994 14.5739 18.8731 14.4719 18.9236 14.3583C18.974 14.2448 19 14.1221 19 13.9981C19 13.8741 18.974 13.7515 18.9236 13.6379C18.8731 13.5243 18.7994 13.4223 18.7071 13.3382Z" fill="white"/>
</g>
<defs>
<filter id="filter0_d_815_31418" x="-1" y="-0.5" width="30" height="30" filterUnits="userSpaceOnUse" color-interpolation-filters="sRGB">
<feFlood flood-opacity="0" result="BackgroundImageFix"/>
<feColorMatrix in="SourceAlpha" type="matrix" values="0 0 0 0 0 0 0 0 0 0 0 0 0 0 0 0 0 0 127 0" result="hardAlpha"/>
<feOffset/>
<feGaussianBlur stdDeviation="0.5"/>
<feComposite in2="hardAlpha" operator="out"/>
<feColorMatrix type="matrix" values="0 0 0 0 0 0 0 0 0 0 0 0 0 0 0 0 0 0 0.25 0"/>
<feBlend mode="normal" in2="BackgroundImageFix" result="effect1_dropShadow_815_31418"/>
<feBlend mode="normal" in="SourceGraphic" in2="effect1_dropShadow_815_31418" result="shape"/>
</filter>
<clipPath id="clip0_815_31418">
<rect width="28" height="28" fill="white" transform="translate(0 0.5)"/>
</clipPath>
</defs>
</svg>
