<svg width="350" height="62" viewBox="0 0 350 62" fill="none" xmlns="http://www.w3.org/2000/svg">
<rect width="350" height="62" rx="12" fill="#FEE500"/>
<path d="M113.001 20.8208C106.925 20.8208 102 24.7073 102 29.5013C102 32.4727 103.892 35.095 106.777 36.6599L105.982 40.8913C105.943 41.1015 106.177 41.2567 106.357 41.1381L111.082 38.0492C111.082 38.0492 112.346 38.1818 113 38.1818C119.075 38.1818 124 34.2953 124 29.5013C124.001 24.7073 119.077 20.8208 113.001 20.8208Z" fill="black" fill-opacity="0.9"/>
<path d="M108.553 27.0923H105.401C105.104 27.0923 104.864 27.3341 104.864 27.6321C104.864 27.9312 105.104 28.1731 105.401 28.1731H106.426V31.9791C106.426 32.1173 106.482 32.2523 106.58 32.3516C106.676 32.4498 106.811 32.506 106.948 32.506H107.063C107.2 32.506 107.334 32.4498 107.431 32.3527C107.529 32.2533 107.585 32.1184 107.585 31.9802V28.1742H108.554C108.851 28.1742 109.09 27.9323 109.09 27.6332C109.089 27.3341 108.849 27.0923 108.553 27.0923Z" fill="black" fill-opacity="0.9"/>
<path d="M115.929 31.4894H114.464V27.6024C114.464 27.2785 114.203 27.0161 113.882 27.0161C113.562 27.0161 113.3 27.2785 113.3 27.6024V31.7917C113.3 31.8241 113.3 31.9472 113.3 31.9796C113.3 32.2506 113.518 32.4708 113.787 32.4708H115.929C116.199 32.4708 116.416 32.2506 116.416 31.9796C116.416 31.7096 116.199 31.4894 115.929 31.4894Z" fill="black" fill-opacity="0.9"/>
<path d="M120.633 31.6685L119 29.5058L120.476 28.018C120.675 27.8172 120.675 27.49 120.476 27.2892C120.276 27.0873 119.951 27.0873 119.751 27.2892L117.923 29.1301V27.6034C117.923 27.2795 117.663 27.0171 117.341 27.0171C117.021 27.0171 116.759 27.2795 116.759 27.6034V31.9212C116.759 32.2451 117.021 32.5085 117.341 32.5085C117.662 32.5085 117.923 32.2462 117.923 31.9212V30.5888L118.256 30.2541L119.801 32.298C119.973 32.529 120.3 32.5766 120.529 32.4016C120.76 32.2278 120.806 31.8996 120.633 31.6685Z" fill="black" fill-opacity="0.9"/>
<path d="M112.952 31.8078L111.381 27.477C111.381 27.477 111.377 27.4738 111.376 27.4727C111.275 27.2093 110.985 27.0171 110.639 27.0171C110.554 27.0171 110.469 27.029 110.388 27.0527C110.311 27.0754 110.237 27.1078 110.17 27.1521C110.106 27.1931 110.049 27.2438 110 27.3032C109.969 27.3421 109.941 27.3853 109.919 27.4306C109.9 27.4706 109.823 27.6919 109.797 27.761C109.789 27.7848 109.779 27.8096 109.77 27.8334C109.76 27.8625 109.749 27.8906 109.738 27.9197C109.726 27.9532 109.713 27.9856 109.701 28.0191C109.687 28.0558 109.674 28.0936 109.66 28.1303C109.645 28.1713 109.63 28.2123 109.615 28.2523C109.599 28.2966 109.582 28.3408 109.566 28.384C109.549 28.4315 109.532 28.4779 109.514 28.5255C109.496 28.5751 109.478 28.6248 109.459 28.6745C109.44 28.7263 109.422 28.7781 109.402 28.8299C109.383 28.8839 109.362 28.9368 109.343 28.9908C109.322 29.0459 109.302 29.1009 109.281 29.156C109.261 29.2122 109.239 29.2683 109.219 29.3244C109.197 29.3817 109.176 29.4389 109.155 29.4961C109.133 29.5533 109.113 29.6117 109.091 29.6689C109.07 29.7261 109.048 29.7844 109.027 29.8416C109.006 29.8989 108.985 29.9561 108.964 30.0144C108.943 30.0716 108.922 30.1278 108.901 30.185C108.881 30.2411 108.86 30.2973 108.84 30.3523C108.819 30.4074 108.8 30.4614 108.779 30.5165C108.76 30.5694 108.74 30.6223 108.721 30.6752C108.702 30.7259 108.683 30.7767 108.665 30.8274C108.646 30.876 108.629 30.9246 108.611 30.9732C108.593 31.0185 108.577 31.065 108.56 31.1103C108.544 31.1535 108.529 31.1956 108.512 31.2388C108.498 31.2777 108.483 31.3176 108.469 31.3565C108.456 31.3921 108.443 31.4277 108.429 31.4634C108.417 31.4947 108.406 31.526 108.395 31.5573C108.385 31.5843 108.375 31.6113 108.365 31.6383C108.356 31.6599 108.348 31.6826 108.34 31.7041C108.333 31.7214 108.327 31.7376 108.321 31.7549C108.317 31.7668 108.313 31.7776 108.308 31.7894C108.306 31.7948 108.304 31.8002 108.302 31.8078C108.207 32.082 108.349 32.3811 108.62 32.4772C108.893 32.5733 109.189 32.4297 109.286 32.1555L109.553 31.3867H111.703L111.971 32.1555C112.066 32.4297 112.364 32.5733 112.635 32.4772C112.905 32.3811 113.047 32.082 112.952 31.8078ZM109.892 30.4063L110.615 28.3289C110.623 28.3289 110.63 28.3311 110.638 28.3311L111.36 30.4063H109.892Z" fill="black" fill-opacity="0.9"/>
<path d="M141.766 25.3281H135.469V26.3438H140.547C140.492 27.1953 140.352 28.0156 140.102 28.7969L134.766 29.1562L134.969 30.2344L139.727 29.7812C138.883 31.6484 137.312 33.2578 134.703 34.5312L135.391 35.4688C140.391 33.0078 141.758 29.3359 141.766 25.3281ZM144.094 37.7656H145.312V30.5625H147.562V29.5312H145.312V23.875H144.094V37.7656ZM155.434 25.3281H149.137V26.3438H154.215C154.16 27.1953 154.02 28.0156 153.77 28.7969L148.434 29.1562L148.637 30.2344L153.395 29.7812C152.551 31.6484 150.981 33.2578 148.371 34.5312L149.059 35.4688C154.059 33.0078 155.426 29.3359 155.434 25.3281ZM157.762 37.7656H158.981V30.5625H161.231V29.5312H158.981V23.875H157.762V37.7656ZM168.227 24.7812C165.282 24.7969 163.149 26.2344 163.149 28.4219C163.149 30.4844 164.993 31.8516 167.618 32.0391V34.9531H161.899V35.9844H174.618V34.9531H168.821V32.0391C171.461 31.8594 173.305 30.4922 173.305 28.4219C173.305 26.2344 171.18 24.7969 168.227 24.7812ZM164.336 28.4219C164.328 26.8516 165.977 25.7891 168.227 25.7969C170.477 25.7891 172.118 26.8516 172.118 28.4219C172.118 30.0234 170.477 31.0625 168.227 31.0781C165.977 31.0625 164.328 30.0234 164.336 28.4219ZM188.286 35.0156H182.489V32.3906H187.004V31.375H178.379V29.1094H186.676V24.9062H177.129V25.9219H185.473V28.1094H177.161V32.3906H181.286V35.0156H175.567V36.0469H188.286V35.0156ZM198.028 27.6094V25.0781H196.809V27.6094C196.794 30.2422 195.083 32.8984 193.013 33.8438L193.794 34.875C195.419 34.0547 196.786 32.2969 197.427 30.2031C198.091 32.1797 199.458 33.8281 201.044 34.5938L201.794 33.625C199.747 32.6953 198.02 30.1484 198.028 27.6094ZM203.309 37.7969H204.544V23.875H203.309V37.7969ZM211.462 26.4531V25.8594H214.587V24.8594H207.087V25.8594H210.259V26.4531C210.243 28.4453 208.79 30.2344 206.712 30.9688L207.368 31.9219C209.001 31.3281 210.274 30.1016 210.868 28.5234C211.462 29.9609 212.673 31.0938 214.259 31.6562L214.884 30.7031C212.829 29.9922 211.47 28.3047 211.462 26.4531ZM208.524 33.9844H216.399V37.7656H217.618V32.9844H208.524V33.9844ZM216.399 32.25H217.618V28.5938H219.712V27.5469H217.618V23.875H216.399V32.25ZM231.177 23.875H229.958V37.7656H231.177V30.625H233.505V29.6094H231.177V23.875ZM220.349 27.125H228.614V26.1094H225.146V24.0469H223.927V26.1094H220.349V27.125ZM221.146 31.4688C221.138 33.3516 222.575 34.6562 224.552 34.6562C226.513 34.6562 227.942 33.3516 227.958 31.4688C227.942 29.5938 226.513 28.2812 224.552 28.2812C222.575 28.2812 221.138 29.5938 221.146 31.4688ZM222.317 31.4688C222.31 30.2109 223.255 29.3047 224.552 29.3125C225.833 29.3047 226.771 30.2109 226.786 31.4688C226.771 32.7344 225.833 33.625 224.552 33.6094C223.255 33.625 222.31 32.7344 222.317 31.4688ZM245.579 23.875H244.345V37.7656H245.579V23.875ZM234.267 34.1562L234.939 35.1562C239.595 32.9219 241.454 29.3828 241.47 25.3906H234.908V26.3906H240.22C239.947 29.7109 238.025 32.375 234.267 34.1562Z" fill="#191919"/>
</svg>
