<svg width="20" height="21" viewBox="0 0 20 21" fill="none" xmlns="http://www.w3.org/2000/svg">
<g clip-path="url(#clip0_600_9844)">
<path d="M8.33301 11.0527C8.69088 11.5311 9.14747 11.927 9.6718 12.2135C10.1961 12.5 10.7759 12.6703 11.3719 12.713C11.9678 12.7557 12.566 12.6697 13.1258 12.4609C13.6856 12.252 14.1939 11.9253 14.6163 11.5027L17.1163 9.00271C17.8753 8.21686 18.2953 7.16435 18.2858 6.07187C18.2763 4.97938 17.8381 3.93433 17.0656 3.16179C16.2931 2.38926 15.248 1.95106 14.1555 1.94156C13.063 1.93207 12.0105 2.35205 11.2247 3.11104L9.79134 4.53604" stroke="#555555" stroke-width="2" stroke-linecap="round" stroke-linejoin="round"/>
<path d="M11.6668 9.38577C11.309 8.90733 10.8524 8.51145 10.328 8.22498C9.80371 7.93852 9.22391 7.76817 8.62796 7.72549C8.032 7.68281 7.43384 7.76879 6.87404 7.97762C6.31425 8.18644 5.8059 8.51321 5.3835 8.93577L2.8835 11.4358C2.12451 12.2216 1.70453 13.2741 1.71402 14.3666C1.72352 15.4591 2.16172 16.5041 2.93426 17.2767C3.70679 18.0492 4.75184 18.4874 5.84433 18.4969C6.93681 18.5064 7.98932 18.0864 8.77517 17.3274L10.2002 15.9024" stroke="#555555" stroke-width="2" stroke-linecap="round" stroke-linejoin="round"/>
</g>
<defs>
<clipPath id="clip0_600_9844">
<rect width="20" height="20" fill="white" transform="translate(0 0.21875)"/>
</clipPath>
</defs>
</svg>
