<svg width="180" height="24" viewBox="0 0 180 24" fill="none" xmlns="http://www.w3.org/2000/svg">
<g clip-path="url(#clip0_1068_26193)">
<path d="M103.885 4.77441V6.30831H102.497V9.37611H103.885V10.91H102.497V12.4439H101.109V17.0456H102.497V18.5795H106.661V17.0456H108.049V18.5795H110.825V17.0456H109.437V13.9778H110.825V12.4439H106.661V10.91H108.049V9.37611H109.437V6.30831H108.049V4.77441H103.885ZM106.661 6.30831V9.37611H105.273V6.30831H106.661ZM106.661 17.0456H103.885V12.4439H105.273V13.9778H106.661V17.0456Z" fill="#03DAC5"/>
<path d="M113.892 4.84766V6.38156H112.504V9.44935H113.892V10.9833H112.504V12.5172H111.116V17.1189H112.504V18.6528H116.668V17.1189H118.056V18.6528H120.832V17.1189H119.444V14.0511H120.832V12.5172H116.668V10.9833H118.056V9.44935H119.444V6.38156H118.056V4.84766H113.892ZM116.668 6.38156V9.44935H115.28V6.38156H116.668ZM116.668 17.1189H113.892V12.5172H115.28V14.0511H116.668V17.1189Z" fill="#03DAC5"/>
</g>
<path d="M121.938 12.674H129.22V10.8763H121.938V12.674Z" fill="#FF9B00"/>
<path d="M134.147 5.48324H132.327V3.68555H130.506V7.28092H132.327V9.07861H134.147V10.8763H135.968V12.674H134.147V14.4717H132.327V16.2694H130.506V19.8647H132.327V18.0671H134.147V16.2694H135.968V14.4717H137.788V12.674H139.609V10.8763H137.788V9.07861H135.968V7.28092H134.147V5.48324Z" fill="#FF9B00"/>
<g clip-path="url(#clip1_1068_26193)">
<path d="M155.782 12.718V12.5284H155.592H151.624V10.8909H153.513H153.703V10.7013V8.87428H155.592H155.782V8.68468V6.85764H157.672H157.861V6.66804V4.6514V4.4618H157.672H155.592H155.403V4.6514V6.47844H153.513H153.324V6.66804V8.49508H151.624V4.6514V4.4618H151.434H149.545V2.63477V2.44517H149.355H145.197H145.008V2.63477V4.4618H143.118H142.929V4.6514V8.68468V8.87428H143.118H145.008V10.7013V10.8909H145.197H149.166V12.5284H147.276H147.087V12.718V14.545H145.197H145.008V14.7346V16.5616H143.118H142.929V16.7512V18.7679V18.9575H143.118H145.197H145.387V18.7679V16.9408H147.276H147.466V16.7512V14.9242H149.166V18.7679V18.9575H149.355H151.245V20.7845V20.9741H151.434H155.592H155.782V20.7845V18.9575H157.672H157.861V18.7679V14.7346V14.545H157.672H155.782V12.718ZM149.545 12.9076H151.245V14.545H149.545V12.9076ZM151.624 18.5783V14.9242H155.403V18.5783H151.624ZM149.545 10.5117V8.87428H151.245V10.5117H149.545ZM145.387 8.49508V4.841H149.166V8.49508H145.387Z" fill="#8EEE4E" stroke="#8EEE4E" stroke-width="0.3792"/>
</g>
<path d="M169.547 19.7475V16.2472H165.997V19.7475H169.547ZM165.997 14.497H169.547V12.7469H171.322V10.9967H173.097V5.74625H171.322V3.99609H164.222V5.74625H162.447V9.24655H165.997V5.74625H169.547V10.9967H167.772V12.7469H165.997V14.497Z" fill="#E498FF"/>
<path d="M177.911 19.7475V16.2472H174.361V19.7475H177.911ZM177.911 10.9967V7.4964H174.361V10.9967H177.911Z" fill="#E498FF"/>
<path d="M3.7448 3.69231V16.6154H0V18.4615H11.2344V16.6154H7.48959V1.84616H0V3.69231H3.7448ZM16.3121 16.6154V7.38462H20.0569V16.6154H16.3121ZM21.9293 16.6154H23.8017V7.38462H21.9293V5.53846H14.4397V7.38462H12.5673V16.6154H14.4397V18.4615H21.9293V16.6154ZM28.8794 16.6154V12.9231H32.6242V16.6154H28.8794ZM27.007 7.38462H25.1346V9.23077H28.8794V7.38462H32.6242V11.0769H27.007V12.9231H25.1346V16.6154H27.007V18.4615H36.369V7.38462H34.4966V5.53846H27.007V7.38462ZM41.4467 16.6154V7.38462H45.1914V16.6154H41.4467ZM48.9362 18.4615V1.84616H45.1914V5.53846H39.5743V7.38462H37.7019V16.6154H39.5743V18.4615H48.9362ZM54.0141 7.38462V16.6154H50.2693V18.4615H61.5037V16.6154H57.7589V5.53846H50.2693V7.38462H54.0141ZM57.7589 0H54.0141V3.69231H57.7589V0ZM66.5812 7.38462H70.326V18.4615H74.0708V7.38462H72.1984V5.53846H62.8364V18.4615H66.5812V7.38462ZM84.766 22.1538H86.6384V5.53846H77.2764V7.38462H75.404V16.6154H77.2764V18.4615H82.8936V22.1538H79.1488V20.3077H75.404V22.1538H77.2764V24H84.766V22.1538ZM82.8936 7.38462V16.6154H79.1488V7.38462H82.8936ZM91.7159 18.4615V14.7692H87.9711V18.4615H91.7159ZM96.7743 18.4615V14.7692H93.0295V18.4615H96.7743Z" fill="white"/>
<defs>
<clipPath id="clip0_1068_26193">
<rect width="19.7226" height="19.4462" fill="white" transform="translate(101.109 2.05176)"/>
</clipPath>
<clipPath id="clip1_1068_26193">
<rect width="19.7226" height="19.4462" fill="white" transform="translate(140.555 2.05176)"/>
</clipPath>
</defs>
</svg>
