<svg width="233" height="59" viewBox="0 0 233 59" fill="none" xmlns="http://www.w3.org/2000/svg">
<path d="M9 9V40.5H0V45H27V40.5H18V4.5H0V9H9ZM39.2034 40.5V18H48.2034V40.5H39.2034ZM52.7034 40.5H57.2034V18H52.7034V13.5H34.7034V18H30.2034V40.5H34.7034V45H52.7034V40.5ZM69.4069 40.5V31.5H78.4069V40.5H69.4069ZM64.9069 18H60.4069V22.5H69.4069V18H78.4069V27H64.9069V31.5H60.4069V40.5H64.9069V45H87.4069V18H82.9069V13.5H64.9069V18ZM99.6103 40.5V18H108.61V40.5H99.6103ZM117.61 45V4.5H108.61V13.5H95.1103V18H90.6103V40.5H95.1103V45H117.61ZM129.814 18V40.5H120.814V45H147.814V40.5H138.814V13.5H120.814V18H129.814ZM138.814 -3.57628e-06H129.814V9H138.814V-3.57628e-06ZM160.017 18H169.017V45H178.017V18H173.517V13.5H151.017V45H160.017V18ZM203.721 54H208.221V13.5H185.721V18H181.221V40.5H185.721V45H199.221V54H190.221V49.5H181.221V54H185.721V58.5H203.721V54ZM199.221 18V40.5H190.221V18H199.221ZM220.424 45V36H211.424V45H220.424ZM232.581 45V36H223.581V45H232.581Z" fill="black"/>
</svg>
