<svg width="57" height="25" viewBox="0 0 57 25" fill="none" xmlns="http://www.w3.org/2000/svg">
<path d="M32.8836 14.8051C32.8836 16.1437 32.6245 17.4032 32.1086 18.5787C31.5928 19.7542 30.8863 20.7786 29.9915 21.6518C29.0968 22.5251 28.0505 23.2136 26.8526 23.7198C25.6547 24.226 24.3712 24.4803 23.0071 24.4803C21.6429 24.4803 20.3595 24.226 19.1616 23.7198C17.9637 23.2136 16.9198 22.5251 16.0299 21.6518C15.1401 20.7786 14.4385 19.7542 13.9226 18.5787C13.4068 17.4032 13.1477 16.1437 13.1477 14.8051V0.269531H18.0688V14.8051C18.0688 15.4696 18.1984 16.0933 18.4551 16.6787C18.7142 17.2641 19.0662 17.7751 19.5136 18.2141C19.961 18.6531 20.4866 18.9985 21.088 19.2528C21.6894 19.5071 22.3299 19.6319 23.0071 19.6319C23.6843 19.6319 24.3223 19.5047 24.9262 19.2528C25.5275 18.9985 26.0532 18.6531 26.5005 18.2141C26.9479 17.7751 27.2999 17.2641 27.5591 16.6787C27.8158 16.0933 27.9453 15.4696 27.9453 14.8051V0.269531H32.8836V14.8051Z" fill="white"/>
<path d="M56.8 22.03C55.6534 22.9872 54.3749 23.7213 52.9643 24.2323C51.5537 24.7433 50.0845 25 48.559 25C47.388 25 46.2634 24.8513 45.178 24.5538C44.095 24.2563 43.0804 23.8341 42.1417 23.2871C41.2005 22.7401 40.3399 22.0876 39.5601 21.3295C38.7802 20.569 38.1153 19.7246 37.5652 18.7962C37.0152 17.8678 36.5873 16.8698 36.2842 15.7998C35.9811 14.7299 35.8295 13.6215 35.8295 12.4748C35.8295 11.3281 35.9811 10.2245 36.2842 9.16659C36.5873 8.10863 37.0152 7.11544 37.5652 6.18703C38.1153 5.25861 38.7802 4.41416 39.5601 3.65368C40.3399 2.8932 41.2005 2.24307 42.1417 1.70329C43.0829 1.16352 44.095 0.743691 45.178 0.446214C46.261 0.148738 47.388 0 48.559 0C50.0845 0 51.5537 0.256693 52.9643 0.767681C54.3749 1.28107 55.6534 2.01516 56.8 2.96996L54.2184 7.18981C53.4728 6.44612 52.6123 5.86316 51.6368 5.44334C50.6614 5.02111 49.6346 4.81 48.5565 4.81C47.4784 4.81 46.4663 5.01152 45.5202 5.41695C44.5741 5.82238 43.7454 6.37175 43.034 7.06266C42.3226 7.75597 41.7603 8.56444 41.3471 9.49285C40.934 10.4213 40.7286 11.4145 40.7286 12.4724C40.7286 13.5304 40.934 14.5427 41.3471 15.4784C41.7603 16.4116 42.3226 17.2296 43.034 17.9253C43.7454 18.6235 44.5741 19.1752 45.5202 19.5807C46.4663 19.9861 47.4784 20.1876 48.5565 20.1876C49.175 20.1876 49.7789 20.1156 50.3631 19.9669C50.9474 19.8206 51.5048 19.619 52.0329 19.3599V12.4724H56.7976V22.0276L56.8 22.03Z" fill="white"/>
<path d="M9.73474 9.03891C9.43159 7.96895 9.00378 6.97337 8.45372 6.04975C7.90367 5.12613 7.23871 4.28169 6.45886 3.5164C5.679 2.75112 4.81848 2.09859 3.87727 1.55882C2.93607 1.01904 1.92152 0.599217 0.831192 0.301741C0.557387 0.227372 0.278694 0.162599 0 0.107422V5.08535C0.166239 5.14293 0.332477 5.2029 0.496271 5.27247C1.45459 5.6779 2.28578 6.22728 2.99229 6.91819C3.69881 7.6115 4.25619 8.42716 4.66935 9.36757C5.0825 10.308 5.28785 11.306 5.28785 12.3639C5.28785 13.4219 5.0825 14.4151 4.66935 15.3435C4.25619 16.2719 3.69636 17.0852 2.99229 17.7833C2.28578 18.4814 1.45459 19.0331 0.496271 19.4386C0.332477 19.5082 0.168683 19.5681 0 19.6257V24.6396C0.278694 24.5844 0.557387 24.5197 0.831192 24.4453C1.92152 24.1478 2.93607 23.7256 3.87727 23.1786C4.81848 22.6317 5.679 21.9767 6.45886 21.2114C7.23871 20.4462 7.90367 19.5993 8.45372 18.6709C9.00378 17.7425 9.43159 16.7469 9.73474 15.6817C10.0379 14.619 10.1919 13.513 10.1919 12.3639C10.1919 11.2148 10.0403 10.1065 9.73474 9.03891Z" fill="white"/>
</svg>
