<svg width="94" height="25" viewBox="0 0 94 25" fill="none" xmlns="http://www.w3.org/2000/svg">
<path d="M5.20609 24.4803H0.294434V0.269531H10.1177C11.0198 0.269531 11.8854 0.384683 12.7195 0.614987C13.551 0.845292 14.3315 1.17156 15.0561 1.59378C15.7807 2.016 16.4421 2.52219 17.0403 3.11235C17.6384 3.7025 18.1514 4.35983 18.5794 5.07953C19.0073 5.79923 19.338 6.57171 19.5715 7.39217C19.8049 8.21503 19.9216 9.06907 19.9216 9.9591C19.9216 11.2881 19.6639 12.5404 19.1508 13.7159C18.6378 14.8914 17.935 15.9182 17.0451 16.7963C16.1552 17.6743 15.1145 18.3676 13.9231 18.8738C12.7316 19.38 11.4624 19.6343 10.1153 19.6343H5.20609V24.4803ZM5.20609 5.11552V14.8051H10.1177C10.7913 14.8051 11.4235 14.6779 12.0167 14.426C12.61 14.1717 13.1279 13.8263 13.5729 13.3873C14.0179 12.9483 14.368 12.4325 14.6258 11.8423C14.8835 11.2522 15.0099 10.6236 15.0099 9.9591C15.0099 9.29458 14.8811 8.66844 14.6258 8.07588C14.368 7.48573 14.0179 6.96994 13.5729 6.53093C13.1279 6.09191 12.6076 5.74645 12.0167 5.49216C11.4235 5.23786 10.7913 5.11312 10.1177 5.11312H5.20609V5.11552Z" fill="#333333"/>
<path d="M69.4099 14.8051C69.4099 16.1437 69.1521 17.4032 68.6391 18.5787C68.126 19.7542 67.4233 20.7786 66.5334 21.6518C65.6435 22.5251 64.6028 23.2136 63.4113 23.7198C62.2199 24.226 60.9433 24.4803 59.5866 24.4803C58.2298 24.4803 56.9532 24.226 55.7618 23.7198C54.5703 23.2136 53.5321 22.5251 52.647 21.6518C51.762 20.7786 51.0641 19.7542 50.5511 18.5787C50.038 17.4032 49.7803 16.1437 49.7803 14.8051V0.269531H54.6749V14.8051C54.6749 15.4696 54.8038 16.0933 55.0591 16.6787C55.3168 17.2641 55.667 17.775 56.1119 18.2141C56.5569 18.6531 57.0797 18.9985 57.6778 19.2528C58.276 19.5071 58.913 19.6319 59.5866 19.6319C60.2601 19.6319 60.8947 19.5047 61.4953 19.2528C62.0934 18.9985 62.6162 18.6531 63.0612 18.2141C63.5062 17.775 63.8563 17.2641 64.114 16.6787C64.3693 16.0933 64.4982 15.4696 64.4982 14.8051V0.269531H69.4099V14.8051Z" fill="#333333"/>
<path d="M93.1978 22.03C92.0575 22.9872 90.7858 23.7213 89.3828 24.2323C87.9798 24.7433 86.5185 25 85.0012 25C83.8365 25 82.718 24.8513 81.6384 24.5538C80.5613 24.2563 79.5522 23.8341 78.6185 23.2871C77.6824 22.7401 76.8265 22.0876 76.0508 21.3295C75.2752 20.569 74.6138 19.7246 74.0667 18.7962C73.5196 17.8678 73.0941 16.8698 72.7926 15.7998C72.4911 14.7299 72.3403 13.6215 72.3403 12.4748C72.3403 11.3281 72.4911 10.2245 72.7926 9.16659C73.0941 8.10863 73.5196 7.11544 74.0667 6.18703C74.6138 5.25861 75.2752 4.41416 76.0508 3.65368C76.8265 2.8932 77.6824 2.24307 78.6185 1.70329C79.5546 1.16352 80.5613 0.743691 81.6384 0.446214C82.7156 0.148738 83.8365 0 85.0012 0C86.5185 0 87.9798 0.256693 89.3828 0.767681C90.7858 1.28107 92.0575 2.01516 93.1978 2.96996L90.6302 7.18981C89.8885 6.44612 89.0327 5.86316 88.0625 5.44334C87.0923 5.02111 86.0711 4.81 84.9988 4.81C83.9265 4.81 82.9198 5.01152 81.9788 5.41695C81.0378 5.82238 80.2136 6.37175 79.506 7.06266C78.7984 7.75597 78.2392 8.56444 77.8283 9.49285C77.4173 10.4213 77.2131 11.4145 77.2131 12.4724C77.2131 13.5304 77.4173 14.5427 77.8283 15.4784C78.2392 16.4116 78.7984 17.2296 79.506 17.9253C80.2136 18.6235 81.0378 19.1752 81.9788 19.5807C82.9198 19.9861 83.9265 20.1876 84.9988 20.1876C85.6139 20.1876 86.2145 20.1156 86.7957 19.9669C87.3768 19.8206 87.9312 19.619 88.4564 19.3599V12.4724H93.1954V22.0276L93.1978 22.03Z" fill="#333333"/>
<path d="M46.3864 9.03891C46.0849 7.96895 45.6594 6.97337 45.1123 6.04975C44.5652 5.12613 43.9038 4.28169 43.1282 3.5164C42.3525 2.75112 41.4966 2.09859 40.5605 1.55882C39.6243 1.01904 38.6153 0.599217 37.5308 0.301741C37.2585 0.227372 36.9813 0.162599 36.7041 0.107422V5.08535C36.8694 5.14293 37.0348 5.2029 37.1977 5.27247C38.1508 5.67791 38.9776 6.22728 39.6803 6.91819C40.383 7.6115 40.9374 8.42716 41.3483 9.36757C41.7592 10.308 41.9635 11.306 41.9635 12.3639C41.9635 13.4219 41.7592 14.4151 41.3483 15.3435C40.9374 16.2719 40.3805 17.0852 39.6803 17.7833C38.9776 18.4814 38.1508 19.0331 37.1977 19.4386C37.0348 19.5082 36.8719 19.5681 36.7041 19.6257V24.6396C36.9813 24.5844 37.2585 24.5197 37.5308 24.4453C38.6153 24.1478 39.6243 23.7256 40.5605 23.1786C41.4966 22.6317 42.3525 21.9767 43.1282 21.2114C43.9038 20.4462 44.5652 19.5993 45.1123 18.6709C45.6594 17.7425 46.0849 16.7469 46.3864 15.6817C46.6879 14.619 46.8411 13.513 46.8411 12.3639C46.8411 11.2148 46.6903 10.1065 46.3864 9.03891Z" fill="#333333"/>
<path d="M31.7944 19.6889C31.5634 19.6169 31.3373 19.5354 31.1136 19.4394C30.1677 19.034 29.3386 18.4822 28.6334 17.7841C27.9258 17.086 27.3666 16.2727 26.9557 15.3443C26.5448 14.4159 26.3405 13.4227 26.3405 12.3648C26.3405 11.3068 26.5448 10.3088 26.9557 9.3684C27.3666 8.42799 27.9258 7.61233 28.6334 6.91902C29.341 6.2281 30.1677 5.67873 31.1136 5.2733C31.3373 5.17734 31.5634 5.09578 31.7944 5.02381V0.0722656C31.4588 0.13464 31.1257 0.211408 30.7975 0.300171C29.7203 0.597647 28.7088 1.01747 27.7678 1.55725C26.8268 2.09702 25.9685 2.74955 25.1928 3.51483C24.4172 4.28011 23.7534 5.12456 23.199 6.04818C22.6446 6.9718 22.2167 7.96738 21.9152 9.03734C21.6136 10.1073 21.4629 11.2156 21.4629 12.3624C21.4629 13.5091 21.6136 14.6174 21.9152 15.6802C22.2167 16.7429 22.6446 17.7409 23.199 18.6693C23.7534 19.5977 24.4172 20.4446 25.1928 21.2099C25.9685 21.9752 26.8268 22.6301 27.7678 23.1771C28.7088 23.724 29.7179 24.1462 30.7975 24.4437C31.1257 24.5349 31.4588 24.6093 31.7944 24.6716V19.6865V19.6889Z" fill="#333333"/>
</svg>
