<svg width="32" height="25" viewBox="0 0 32 25" fill="none" xmlns="http://www.w3.org/2000/svg">
<path d="M4.87574 24.3082H0V0.195312H9.75147C10.647 0.195312 11.5063 0.309999 12.3342 0.539373C13.1597 0.768747 13.9345 1.09369 14.6538 1.51421C15.373 1.93473 16.0296 2.43888 16.6234 3.02665C17.2171 3.61442 17.7264 4.26909 18.1513 4.98588C18.5761 5.70268 18.9043 6.47203 19.1361 7.28918C19.3678 8.10871 19.4836 8.95931 19.4836 9.84574C19.4836 11.1694 19.2278 12.4166 18.7185 13.5874C18.2092 14.7582 17.5116 15.7808 16.6282 16.6553C15.7448 17.5298 14.7117 18.2203 13.529 18.7244C12.3462 19.2286 11.0863 19.4818 9.74906 19.4818H4.87574V24.3082ZM4.87574 5.02172V14.6721H9.75147C10.4201 14.6721 11.0476 14.5455 11.6366 14.2946C12.2255 14.0414 12.7397 13.6973 13.1814 13.2601C13.6231 12.8228 13.9707 12.3091 14.2265 11.7213C14.4824 11.1336 14.6079 10.5076 14.6079 9.84574C14.6079 9.1839 14.48 8.56029 14.2265 7.97013C13.9707 7.38236 13.6231 6.86866 13.1814 6.43141C12.7397 5.99417 12.2231 5.65011 11.6366 5.39684C11.0476 5.14358 10.4201 5.01933 9.75147 5.01933H4.87574V5.02172Z" fill="white"/>
<path d="M31.27 19.5374C31.0407 19.4657 30.8162 19.3845 30.5942 19.2889C29.6552 18.8851 28.8321 18.3356 28.1322 17.6403C27.4298 16.945 26.8746 16.135 26.4667 15.2104C26.0588 14.2857 25.856 13.2965 25.856 12.2428C25.856 11.1891 26.0588 10.1952 26.4667 9.25858C26.8746 8.32197 27.4298 7.50961 28.1322 6.8191C28.8346 6.13097 29.6552 5.58382 30.5942 5.18003C30.8162 5.08445 31.0407 5.00322 31.27 4.93154V0C30.9369 0.0621221 30.6062 0.13858 30.2804 0.226985C29.2111 0.523259 28.207 0.941389 27.2729 1.47898C26.3388 2.01658 25.4867 2.66647 24.7167 3.42866C23.9468 4.19085 23.2878 5.03189 22.7375 5.95177C22.1871 6.87166 21.7623 7.86322 21.463 8.92886C21.1637 9.99449 21.0141 11.0984 21.0141 12.2404C21.0141 13.3825 21.1637 14.4864 21.463 15.5449C21.7623 16.6033 22.1871 17.5973 22.7375 18.5219C23.2878 19.4466 23.9468 20.29 24.7167 21.0522C25.4867 21.8144 26.3388 22.4667 27.2729 23.0115C28.207 23.5562 29.2087 23.9767 30.2804 24.273C30.6062 24.3638 30.9369 24.4379 31.27 24.5V19.535V19.5374Z" fill="white"/>
</svg>
