<svg width="22" height="22" viewBox="0 0 22 22" fill="none" xmlns="http://www.w3.org/2000/svg">
<path d="M2.66667 21C2.66667 21 1 21 1 19.3333C1 17.6667 2.66667 12.6667 11 12.6667C19.3333 12.6667 21 17.6667 21 19.3333C21 21 19.3333 21 19.3333 21H2.66667ZM11 11C12.3261 11 13.5979 10.4732 14.5355 9.53553C15.4732 8.59785 16 7.32608 16 6C16 4.67392 15.4732 3.40215 14.5355 2.46447C13.5979 1.52678 12.3261 1 11 1C9.67392 1 8.40215 1.52678 7.46447 2.46447C6.52678 3.40215 6 4.67392 6 6C6 7.32608 6.52678 8.59785 7.46447 9.53553C8.40215 10.4732 9.67392 11 11 11Z" fill="#CFD3E2"/>
</svg>
