<svg width="37" height="46" viewBox="0 0 37 46" fill="none" xmlns="http://www.w3.org/2000/svg">
<path d="M31.1316 25.5993V25.4097H30.942H21.1383V20.8733H25.9453H26.1349V20.6837V15.9578H30.942H31.1316V15.7682V11.0422H35.9387H36.1283V10.8526V5.93704V5.74744H35.9387H30.942H30.7524V5.93704V10.663H25.9453H25.7557V10.8526V15.5786H21.1383V5.93704V5.74744H20.9487H16.1416V1.02148V0.831884H15.952H5.9587H5.7691V1.02148V5.74744H0.962036H0.772436V5.93704V15.7682V15.9578H0.962036H5.7691V20.6837V20.8733H5.9587H15.7624V25.4097H10.9554H10.7658V25.5993V30.3252H5.9587H5.7691V30.5148V35.2408H0.962036H0.772436V35.4304V40.3459V40.5355H0.962036H5.9587H6.1483V40.3459V35.62H10.9554H11.145V35.4304V30.7044H15.7624V40.3459V40.5355H15.952H20.7591V45.2615V45.4511H20.9487H30.942H31.1316V45.2615V40.5355H35.9387H36.1283V40.3459V30.5148V30.3252H35.9387H31.1316V25.5993ZM16.1416 25.7889H20.7591V30.3252H16.1416V25.7889ZM21.1383 40.1563V30.7044H30.7524V40.1563H21.1383ZM16.1416 20.4941V15.9578H20.7591V20.4941H16.1416ZM6.1483 15.5786V6.12664H15.7624V15.5786H6.1483Z" fill="#8EEE4E" stroke="#8EEE4E" stroke-width="0.3792"/>
</svg>
