<svg width="350" height="80" viewBox="0 0 350 80" fill="none" xmlns="http://www.w3.org/2000/svg">
<rect width="350" height="80" rx="40" fill="#696B7B"/>
<path d="M122.25 38.7505H114.75V31.2505C114.75 30.919 114.618 30.601 114.384 30.3666C114.149 30.1322 113.832 30.0005 113.5 30.0005C113.168 30.0005 112.851 30.1322 112.616 30.3666C112.382 30.601 112.25 30.919 112.25 31.2505V38.7505H104.75C104.418 38.7505 104.101 38.8822 103.866 39.1166C103.632 39.351 103.5 39.669 103.5 40.0005C103.5 40.332 103.632 40.65 103.866 40.8844C104.101 41.1188 104.418 41.2505 104.75 41.2505H112.25V48.7505C112.25 49.082 112.382 49.4 112.616 49.6344C112.851 49.8688 113.168 50.0005 113.5 50.0005C113.832 50.0005 114.149 49.8688 114.384 49.6344C114.618 49.4 114.75 49.082 114.75 48.7505V41.2505H122.25C122.582 41.2505 122.899 41.1188 123.134 40.8844C123.368 40.65 123.5 40.332 123.5 40.0005C123.5 39.669 123.368 39.351 123.134 39.1166C122.899 38.8822 122.582 38.7505 122.25 38.7505Z" fill="white"/>
<path d="M143.962 34.3047V33.8164H147.81V32.3125H138.161V33.8164H142.087V34.3047C142.078 36.6777 140.398 38.9629 137.673 39.9102L138.63 41.3359C140.71 40.6035 142.263 39.0996 143.054 37.2051C143.845 38.9629 145.369 40.3398 147.38 41.0039L148.337 39.5586C145.632 38.709 143.962 36.5508 143.962 34.3047ZM140.134 44.1094H150.134V48.6602H151.99V42.6055H140.134V44.1094ZM150.134 41.7266H151.99V31.1602H150.134V41.7266ZM170.559 41.1992H154.544V42.7031H161.594V48.6406H163.411V42.7031H170.559V41.1992ZM156.555 38.9727H168.547V32.0977H156.555V38.9727ZM158.372 37.5273V33.582H166.692V37.5273H158.372ZM190.921 31.1797H189.065V34.2852H185.267C185.384 33.6992 185.452 33.0742 185.452 32.4297H177.444V33.9531H183.44C183.108 36.7754 180.687 39.002 176.546 40.1836L177.288 41.6289C181.077 40.5449 183.704 38.5625 184.837 35.75H189.065V37.8789H184.651V39.4023H189.065V41.5312H190.921V31.1797ZM179.261 45.1445C179.261 47.2734 181.565 48.582 185.159 48.582C188.704 48.582 191.028 47.2734 191.038 45.1445C191.028 43.0254 188.704 41.7363 185.159 41.7266C181.565 41.7363 179.261 43.0254 179.261 45.1445ZM181.097 45.1445C181.097 43.8945 182.659 43.1816 185.159 43.1914C187.61 43.1816 189.173 43.8945 189.183 45.1445C189.173 46.375 187.61 47.0879 185.159 47.0977C182.659 47.0879 181.097 46.375 181.097 45.1445ZM208.006 31.1602H206.151V36.4141H203.416V37.957H206.151V41.7656H208.006V31.1602ZM193.436 34.3828H203.69V32.8984H199.49V31.0039H197.654V32.8984H193.436V34.3828ZM194.451 38.3086C194.451 40.1934 196.17 41.4434 198.572 41.4531C200.975 41.4434 202.674 40.1934 202.674 38.3086C202.674 36.4727 200.975 35.1836 198.572 35.1836C196.17 35.1836 194.451 36.4727 194.451 38.3086ZM196.229 38.3086C196.229 37.2832 197.176 36.5996 198.572 36.6094C199.949 36.5996 200.897 37.2832 200.897 38.3086C200.897 39.373 199.949 40.0371 198.572 40.0469C197.176 40.0371 196.229 39.373 196.229 38.3086ZM196.463 48.4453H208.006V42.625H196.463V48.4453ZM198.299 46.9414V44.0898H206.19V46.9414H198.299ZM231.141 41.707H215.184V43.2305H222.235V48.6797H224.071V43.2305H231.141V41.707ZM216.122 39.0117L216.805 40.4961C219.628 40.1055 222.03 38.8066 223.163 37C224.295 38.7871 226.688 40.1055 229.501 40.4961L230.165 39.0117C226.835 38.5918 224.188 36.7168 224.09 34.7734H229.618V33.2695H224.071V31.1602H222.235V33.2695H216.688V34.7734H222.235C222.118 36.7363 219.442 38.5918 216.122 39.0117ZM245.902 31.1602H244.047V48.6406H245.902V39.6758H248.617V38.1328H245.902V31.1602ZM232.289 43.9727L233.324 45.418C239.086 42.5762 241.312 38.0547 241.332 32.9961H233.168V34.5391H239.437C239.056 38.6211 236.674 41.7852 232.289 43.9727Z" fill="white"/>
</svg>
