<svg width="16" height="36" viewBox="0 0 16 36" fill="none" xmlns="http://www.w3.org/2000/svg">
<rect x="1.47727" y="0.613991" width="13.0455" height="21.0455" rx="6.52273" stroke="#CFD3E2" stroke-width="0.954545"/>
<rect x="6" y="3.13672" width="3.81818" height="6.36364" rx="1.90909" fill="#CFD3E2"/>
<path d="M15.2807 25.0676C15.4939 24.9126 15.541 24.6141 15.386 24.4009C15.231 24.1877 14.9325 24.1406 14.7193 24.2957L15.2807 25.0676ZM8 29.7726L7.71928 30.1585L8 30.3627L8.28072 30.1585L8 29.7726ZM1.28072 24.2957C1.06754 24.1406 0.769048 24.1877 0.614012 24.4009C0.458975 24.6141 0.506105 24.9126 0.719281 25.0676L1.28072 24.2957ZM14.7193 24.2957L7.71928 29.3866L8.28072 30.1585L15.2807 25.0676L14.7193 24.2957ZM8.28072 29.3866L1.28072 24.2957L0.719281 25.0676L7.71928 30.1585L8.28072 29.3866Z" fill="#CFD3E2"/>
<path d="M15.2807 30.1594C15.4939 30.0044 15.541 29.7059 15.386 29.4927C15.231 29.2795 14.9325 29.2324 14.7193 29.3874L15.2807 30.1594ZM8 34.8643L7.71928 35.2503L8 35.4545L8.28072 35.2503L8 34.8643ZM1.28072 29.3874C1.06754 29.2324 0.769048 29.2795 0.614012 29.4927C0.458975 29.7059 0.506105 30.0044 0.719281 30.1594L1.28072 29.3874ZM14.7193 29.3874L7.71928 34.4784L8.28072 35.2503L15.2807 30.1594L14.7193 29.3874ZM8.28072 34.4784L1.28072 29.3874L0.719281 30.1594L7.71928 35.2503L8.28072 34.4784Z" fill="#CFD3E2"/>
</svg>
