<svg width="401" height="400" viewBox="0 0 401 400" fill="none" xmlns="http://www.w3.org/2000/svg">
<g clip-path="url(#clip0_1067_28152)">
<path fill-rule="evenodd" clip-rule="evenodd" d="M200.5 72.5004C181.389 72.5105 162.905 79.3605 148.353 91.8257C133.801 104.291 124.13 121.558 121.068 140.54C118.007 159.523 121.755 178.982 131.643 195.438C141.531 211.894 156.913 224.275 175.04 230.366C179.039 231.117 180.545 228.609 180.545 226.476C180.545 224.545 180.545 218.16 180.438 211.399C158.044 216.295 153.312 201.835 153.312 201.835C149.659 192.446 144.38 189.978 144.38 189.978C137.076 184.961 144.927 185.055 144.927 185.055C153.018 185.632 157.271 193.412 157.271 193.412C164.442 205.792 176.106 202.211 180.691 200.118C181.411 194.874 183.504 191.306 185.81 189.28C167.921 187.228 149.126 180.293 149.126 149.254C149.012 141.201 151.986 133.413 157.431 127.51C156.591 125.471 153.831 117.235 158.204 106.048C158.204 106.048 164.962 103.862 180.345 114.351C193.539 110.72 207.46 110.72 220.655 114.351C236.024 103.862 242.769 106.048 242.769 106.048C247.155 117.208 244.396 125.444 243.569 127.51C249.006 133.416 251.971 141.204 251.847 149.254C251.847 180.36 233.012 187.214 215.096 189.213C217.975 191.735 220.548 196.658 220.548 204.223C220.548 215.061 220.455 223.78 220.455 226.45C220.455 228.609 221.908 231.131 225.987 230.339C244.116 224.248 259.499 211.865 269.387 195.405C279.274 178.946 283.021 159.484 279.956 140.5C276.891 121.516 267.215 104.249 252.658 91.7858C238.101 79.3228 219.613 72.4773 200.5 72.4736V72.5004Z" fill="white"/>
<path d="M150.472 188.81C150.299 189.213 149.659 189.333 149.139 189.052C148.619 188.77 148.219 188.247 148.406 187.831C148.593 187.415 149.219 187.308 149.739 187.59C150.259 187.871 150.659 188.408 150.459 188.81H150.472Z" fill="white"/>
<path d="M153.751 192.472C153.475 192.612 153.159 192.651 152.858 192.582C152.556 192.514 152.288 192.342 152.098 192.096C151.578 191.533 151.472 190.755 151.872 190.406C152.272 190.057 152.992 190.218 153.511 190.782C154.031 191.345 154.151 192.123 153.751 192.472Z" fill="white"/>
<path d="M156.924 197.127C156.431 197.475 155.591 197.127 155.125 196.429C154.996 196.304 154.893 196.154 154.823 195.988C154.753 195.822 154.717 195.644 154.717 195.463C154.717 195.283 154.753 195.105 154.823 194.939C154.893 194.773 154.996 194.623 155.125 194.498C155.618 194.162 156.458 194.498 156.924 195.182C157.391 195.866 157.418 196.778 156.924 197.127Z" fill="white"/>
<path d="M161.27 201.633C160.83 202.13 159.937 201.995 159.204 201.325C158.471 200.654 158.297 199.742 158.737 199.259C159.177 198.776 160.07 198.91 160.83 199.568C161.59 200.225 161.736 201.15 161.27 201.633Z" fill="white"/>
<path d="M167.268 204.249C167.068 204.893 166.162 205.175 165.255 204.906C164.349 204.638 163.749 203.887 163.922 203.243C164.096 202.599 165.015 202.304 165.935 202.599C166.855 202.894 167.441 203.605 167.268 204.249Z" fill="white"/>
<path d="M173.853 204.746C173.853 205.403 173.106 205.967 172.147 205.98C171.187 205.994 170.4 205.457 170.4 204.8C170.4 204.142 171.147 203.579 172.107 203.566C173.066 203.552 173.853 204.075 173.853 204.746Z" fill="white"/>
<path d="M179.985 203.686C180.105 204.343 179.439 205.027 178.479 205.188C177.519 205.349 176.679 204.96 176.559 204.316C176.439 203.672 177.133 202.975 178.066 202.8C178.999 202.626 179.865 203.029 179.985 203.686Z" fill="white"/>
</g>
<g clip-path="url(#clip1_1067_28152)">
<path d="M143.323 298.338H127.691C127.499 298.338 127.315 298.415 127.178 298.552C127.042 298.689 126.964 298.876 126.963 299.071V306.819C126.963 307.015 127.04 307.203 127.176 307.341C127.313 307.48 127.498 307.558 127.691 307.558H133.79V317.186C133.79 317.186 132.421 317.657 128.626 317.657C124.159 317.657 117.921 316.003 117.921 302.097C117.921 288.191 124.417 286.359 130.516 286.359C135.794 286.359 138.071 287.296 139.517 287.751C139.623 287.772 139.732 287.769 139.837 287.742C139.941 287.715 140.039 287.665 140.122 287.596C140.206 287.526 140.273 287.439 140.319 287.34C140.365 287.241 140.389 287.133 140.39 287.024L142.135 279.542C142.139 279.429 142.116 279.317 142.067 279.216C142.019 279.115 141.946 279.027 141.856 278.961C141.268 278.537 137.684 276.5 128.626 276.5C118.189 276.5 107.489 281.003 107.489 302.641C107.489 324.28 119.733 327.5 130.061 327.5C138.613 327.5 143.798 323.798 143.798 323.798C143.882 323.732 143.947 323.646 143.989 323.547C144.03 323.448 144.046 323.34 144.035 323.233V299.071C144.034 298.878 143.959 298.694 143.826 298.558C143.693 298.421 143.512 298.342 143.323 298.338Z" fill="white"/>
<path d="M223.873 279.097C223.874 279 223.856 278.903 223.821 278.813C223.785 278.722 223.732 278.64 223.665 278.57C223.598 278.501 223.518 278.445 223.429 278.407C223.341 278.369 223.246 278.349 223.15 278.349H214.371C214.176 278.35 213.989 278.43 213.852 278.57C213.715 278.71 213.637 278.9 213.637 279.097V296.338H199.901V279.097C199.902 279 199.885 278.903 199.849 278.813C199.813 278.722 199.76 278.64 199.693 278.57C199.626 278.501 199.546 278.445 199.457 278.407C199.369 278.369 199.274 278.349 199.178 278.349H190.399C190.303 278.349 190.208 278.369 190.119 278.407C190.03 278.445 189.95 278.501 189.882 278.57C189.814 278.64 189.761 278.722 189.725 278.812C189.689 278.903 189.67 279 189.671 279.097V325.783C189.67 325.881 189.689 325.978 189.725 326.068C189.761 326.159 189.814 326.241 189.882 326.31C189.95 326.38 190.03 326.435 190.119 326.473C190.208 326.511 190.303 326.531 190.399 326.532H199.178C199.274 326.531 199.369 326.511 199.457 326.473C199.546 326.435 199.626 326.38 199.693 326.31C199.76 326.241 199.813 326.158 199.849 326.068C199.885 325.977 199.902 325.881 199.901 325.783V305.815H213.622V325.783C213.621 325.881 213.64 325.978 213.676 326.068C213.712 326.159 213.765 326.241 213.833 326.31C213.901 326.38 213.981 326.435 214.07 326.473C214.159 326.511 214.254 326.531 214.35 326.532H223.176C223.272 326.531 223.367 326.511 223.455 326.473C223.543 326.435 223.624 326.38 223.691 326.31C223.758 326.241 223.811 326.158 223.847 326.068C223.882 325.977 223.9 325.881 223.898 325.783L223.873 279.097Z" fill="white"/>
<path d="M159.931 285.249C159.921 284.112 159.579 283.004 158.949 282.064C158.318 281.123 157.428 280.393 156.389 279.966C155.35 279.538 154.21 279.431 153.111 279.659C152.013 279.887 151.005 280.44 150.216 281.247C149.427 282.055 148.891 283.081 148.676 284.197C148.461 285.312 148.576 286.468 149.008 287.517C149.439 288.566 150.167 289.463 151.1 290.093C152.033 290.724 153.129 291.06 154.251 291.06C155.001 291.06 155.744 290.91 156.436 290.617C157.129 290.324 157.757 289.895 158.286 289.355C158.814 288.815 159.231 288.174 159.514 287.469C159.796 286.764 159.938 286.009 159.931 285.249Z" fill="white"/>
<path d="M159.301 315.935V294.385C159.301 294.189 159.224 294 159.088 293.861C158.951 293.722 158.766 293.643 158.573 293.642H149.794C149.588 293.66 149.396 293.754 149.255 293.907C149.114 294.059 149.034 294.26 149.029 294.469V325.359C149.029 326.265 149.587 326.537 150.31 326.537H158.216C159.084 326.537 159.295 326.102 159.295 325.343L159.301 315.935Z" fill="white"/>
<path d="M257.32 293.709H248.588C248.491 293.71 248.396 293.73 248.307 293.768C248.219 293.806 248.138 293.861 248.071 293.93C248.003 294 247.95 294.082 247.913 294.173C247.877 294.263 247.859 294.36 247.859 294.458V317.348C246.267 318.415 244.403 318.988 242.494 318.997C239.344 318.997 238.507 317.547 238.507 314.421V294.458C238.508 294.36 238.49 294.263 238.453 294.173C238.417 294.082 238.364 294 238.296 293.93C238.229 293.861 238.148 293.806 238.059 293.768C237.971 293.73 237.875 293.71 237.779 293.709H228.918C228.724 293.712 228.538 293.792 228.402 293.932C228.266 294.072 228.189 294.261 228.189 294.458V315.924C228.189 325.206 233.297 327.479 240.315 327.479C246.078 327.479 250.72 324.253 250.72 324.253C250.795 324.892 250.902 325.526 251.041 326.154C251.105 326.271 251.199 326.37 251.312 326.44C251.425 326.511 251.554 326.551 251.686 326.557L257.325 326.531C257.519 326.53 257.704 326.451 257.84 326.311C257.977 326.172 258.053 325.984 258.053 325.788V294.458C258.054 294.36 258.036 294.262 257.999 294.172C257.962 294.081 257.909 293.998 257.84 293.929C257.772 293.859 257.691 293.804 257.602 293.766C257.513 293.728 257.417 293.709 257.32 293.709Z" fill="white"/>
<path d="M281.189 292.663C278.264 292.645 275.387 293.419 272.854 294.904V279.097C272.856 278.901 272.78 278.712 272.645 278.572C272.51 278.432 272.325 278.351 272.131 278.349H263.296C263.199 278.349 263.104 278.369 263.015 278.407C262.927 278.445 262.846 278.501 262.779 278.57C262.711 278.64 262.657 278.722 262.621 278.812C262.585 278.903 262.567 279 262.567 279.097V325.783C262.567 325.881 262.585 325.978 262.621 326.068C262.657 326.159 262.711 326.241 262.779 326.31C262.846 326.38 262.927 326.435 263.015 326.473C263.104 326.511 263.199 326.531 263.296 326.532H269.42C269.552 326.53 269.68 326.493 269.792 326.422C269.904 326.352 269.995 326.253 270.055 326.134C270.234 325.427 270.358 324.708 270.427 323.982C270.427 323.982 274.042 327.448 280.869 327.448C288.889 327.448 293.49 323.328 293.49 308.935C293.49 294.542 286.152 292.663 281.189 292.663ZM277.755 318.966C275.964 318.919 274.214 318.407 272.674 317.48V302.694C274.062 301.891 275.598 301.387 277.187 301.212C280.332 300.925 283.384 301.888 283.384 309.495C283.353 317.516 281.984 319.097 277.755 318.966Z" fill="white"/>
<path d="M184.595 293.625H177.995V284.782C177.995 284.447 177.825 284.259 177.443 284.259H168.437C168.085 284.259 167.92 284.416 167.92 284.756V293.892C167.92 293.892 163.412 294.997 163.107 295.086C162.957 295.132 162.825 295.227 162.732 295.355C162.639 295.483 162.59 295.639 162.591 295.798V301.557C162.59 301.654 162.608 301.75 162.644 301.84C162.68 301.93 162.733 302.012 162.8 302.081C162.868 302.15 162.947 302.205 163.036 302.242C163.124 302.28 163.218 302.3 163.314 302.301H167.931V316.138C167.931 326.395 175.026 327.405 179.808 327.405C181.584 327.351 183.345 327.057 185.044 326.531C185.172 326.476 185.281 326.382 185.355 326.262C185.429 326.142 185.464 326.002 185.457 325.861V319.542C185.455 319.346 185.377 319.159 185.242 319.021C185.106 318.882 184.922 318.802 184.729 318.798C184.342 318.798 183.356 318.955 182.343 318.955C179.1 318.955 178.006 317.426 178.006 315.447V302.316H184.595C184.691 302.316 184.786 302.297 184.875 302.26C184.964 302.222 185.044 302.167 185.112 302.098C185.179 302.029 185.233 301.947 185.269 301.857C185.306 301.767 185.324 301.67 185.323 301.573V294.379C185.325 294.281 185.308 294.183 185.272 294.092C185.237 294.001 185.183 293.917 185.115 293.847C185.048 293.777 184.967 293.721 184.877 293.683C184.788 293.645 184.692 293.625 184.595 293.625Z" fill="white"/>
</g>
<defs>
<clipPath id="clip0_1067_28152">
<rect width="161" height="158" fill="white" transform="translate(120 72.5)"/>
</clipPath>
<clipPath id="clip1_1067_28152">
<rect width="186" height="51" fill="white" transform="translate(107.5 276.5)"/>
</clipPath>
</defs>
</svg>
