<svg width="34" height="35" viewBox="0 0 34 35" fill="none" xmlns="http://www.w3.org/2000/svg">
<path d="M15.333 27.4997H18.6663V24.1663H15.333V27.4997ZM16.9997 0.833008C7.79967 0.833008 0.333008 8.29967 0.333008 17.4997C0.333008 26.6997 7.79967 34.1663 16.9997 34.1663C26.1997 34.1663 33.6663 26.6997 33.6663 17.4997C33.6663 8.29967 26.1997 0.833008 16.9997 0.833008ZM16.9997 30.833C9.64968 30.833 3.66634 24.8497 3.66634 17.4997C3.66634 10.1497 9.64968 4.16634 16.9997 4.16634C24.3497 4.16634 30.333 10.1497 30.333 17.4997C30.333 24.8497 24.3497 30.833 16.9997 30.833ZM16.9997 7.49967C13.3163 7.49967 10.333 10.483 10.333 14.1663H13.6663C13.6663 12.333 15.1663 10.833 16.9997 10.833C18.833 10.833 20.333 12.333 20.333 14.1663C20.333 17.4997 15.333 17.083 15.333 22.4997H18.6663C18.6663 18.7497 23.6663 18.333 23.6663 14.1663C23.6663 10.483 20.683 7.49967 16.9997 7.49967Z" fill="#696B7B"/>
</svg>