<svg width="72" height="72" viewBox="0 0 72 72" fill="none" xmlns="http://www.w3.org/2000/svg">
<rect width="72" height="72" fill="black" fill-opacity="0.8"/>
<path d="M29.5 30.5L35.5 24.5L41.5 30.5" stroke="white" stroke-width="2" stroke-linecap="round" stroke-linejoin="round"/>
<path d="M23.0469 44.6953H26.1641V53.5H27.4082V44.6953H30.5117V43.6016H23.0469V44.6953ZM39.9694 48.5508C39.9762 45.4199 38.1305 43.4648 35.5944 43.4648C33.0514 43.4648 31.2125 45.4199 31.2194 48.5508C31.2125 51.6816 33.0514 53.6367 35.5944 53.6367C38.1305 53.6367 39.9762 51.6816 39.9694 48.5508ZM32.4088 48.5508C32.4157 45.9941 33.8034 44.6133 35.5944 44.6133C37.3854 44.6133 38.7731 45.9941 38.7799 48.5508C38.7731 51.1006 37.3854 52.4814 35.5944 52.4883C33.8034 52.4814 32.4157 51.1006 32.4088 48.5508ZM41.6341 53.5H42.8645V49.9043H45.011C47.3147 49.9043 48.3743 48.5029 48.3743 46.7461C48.3743 44.9824 47.3147 43.6016 44.9973 43.6016H41.6341V53.5ZM42.8645 48.8105V44.6953H44.9427C46.5354 44.6953 47.1507 45.5635 47.1575 46.7461C47.1507 47.9219 46.5354 48.8105 44.9563 48.8105H42.8645Z" fill="white"/>
</svg>
