<svg width="16" height="16" viewBox="0 0 16 16" fill="none" xmlns="http://www.w3.org/2000/svg">
<path d="M5.14107 1.35547C5.4376 1.35547 5.71083 1.51629 5.85478 1.77557L6.85332 3.57427C6.98405 3.80978 6.99021 4.09464 6.86972 4.33558L5.90776 6.25954C5.90776 6.25954 6.18654 7.69276 7.35323 8.85946C8.51997 10.0261 9.94838 10.3001 9.94838 10.3001L11.872 9.33831C12.1131 9.21774 12.3982 9.22399 12.6338 9.35497L14.4376 10.3578C14.6966 10.5019 14.8572 10.7749 14.8572 11.0713V13.1421C14.8572 14.1967 13.8777 14.9584 12.8785 14.6212C10.8263 13.9287 7.64066 12.6103 5.62156 10.5911C3.60246 8.57203 2.28398 5.38644 1.59152 3.33423C1.25436 2.33501 2.01603 1.35547 3.07058 1.35547H5.14107Z" fill="white" stroke="#999999" stroke-width="1.5" stroke-linejoin="round"/>
</svg>
